<svg width="500"
  height="32"
  viewBox="0 0 500 32"
  fill="none"
  xmlns="http://www.w3.org/2000/svg">
  <path d="M0 6C0 2.68629 2.68629 0 6 0H88V32H6C2.68629 32 0 29.3137 0 26V6Z"
    fill="#373E47"/>
  <path d="M19.639 12.075V15.582H23.762V16.688H19.639V21H18.281V10.969H24.462V12.075H19.639ZM27.1917 13.909V21H25.9457V13.909H27.1917ZM27.4577 11.683C27.4577 11.8043 27.432 11.9187 27.3807 12.026C27.334 12.1287 27.2687 12.222 27.1847 12.306C27.1053 12.3853 27.0097 12.4483 26.8977 12.495C26.7903 12.5417 26.676 12.565 26.5547 12.565C26.4333 12.565 26.319 12.5417 26.2117 12.495C26.109 12.4483 26.018 12.3853 25.9387 12.306C25.8593 12.222 25.7963 12.1287 25.7497 12.026C25.703 11.9187 25.6797 11.8043 25.6797 11.683C25.6797 11.5617 25.703 11.4473 25.7497 11.34C25.7963 11.228 25.8593 11.1323 25.9387 11.053C26.018 10.969 26.109 10.9037 26.2117 10.857C26.319 10.8103 26.4333 10.787 26.5547 10.787C26.676 10.787 26.7903 10.8103 26.8977 10.857C27.0097 10.9037 27.1053 10.969 27.1847 11.053C27.2687 11.1323 27.334 11.228 27.3807 11.34C27.432 11.4473 27.4577 11.5617 27.4577 11.683ZM30.527 10.689V21H29.281V10.689H30.527ZM34.7245 21.112C34.1645 21.112 33.7329 20.9557 33.4295 20.643C33.1309 20.3303 32.9815 19.88 32.9815 19.292V14.952H32.1275C32.0529 14.952 31.9899 14.931 31.9385 14.889C31.8872 14.8423 31.8615 14.7723 31.8615 14.679V14.182L33.0235 14.035L33.3105 11.844C33.3245 11.774 33.3549 11.718 33.4015 11.676C33.4529 11.6293 33.5182 11.606 33.5975 11.606H34.2275V14.049H36.2785V14.952H34.2275V19.208C34.2275 19.5067 34.2999 19.7283 34.4445 19.873C34.5892 20.0177 34.7759 20.09 35.0045 20.09C35.1352 20.09 35.2472 20.0737 35.3405 20.041C35.4385 20.0037 35.5225 19.964 35.5925 19.922C35.6625 19.88 35.7209 19.8427 35.7675 19.81C35.8189 19.7727 35.8632 19.754 35.9005 19.754C35.9659 19.754 36.0242 19.7937 36.0755 19.873L36.4395 20.468C36.2249 20.6687 35.9659 20.8273 35.6625 20.944C35.3592 21.056 35.0465 21.112 34.7245 21.112ZM42.2701 16.681C42.2701 16.3917 42.2281 16.128 42.1441 15.89C42.0648 15.6473 41.9458 15.4397 41.7871 15.267C41.6331 15.0897 41.4441 14.9543 41.2201 14.861C40.9961 14.763 40.7418 14.714 40.4571 14.714C39.8598 14.714 39.3861 14.889 39.0361 15.239C38.6908 15.5843 38.4761 16.065 38.3921 16.681H42.2701ZM43.2781 20.006C43.1241 20.1927 42.9398 20.356 42.7251 20.496C42.5104 20.6313 42.2794 20.7433 42.0321 20.832C41.7894 20.9207 41.5374 20.986 41.2761 21.028C41.0148 21.0747 40.7558 21.098 40.4991 21.098C40.0091 21.098 39.5564 21.0163 39.1411 20.853C38.7304 20.685 38.3734 20.4423 38.0701 20.125C37.7714 19.803 37.5381 19.4063 37.3701 18.935C37.2021 18.4637 37.1181 17.9223 37.1181 17.311C37.1181 16.8163 37.1928 16.3543 37.3421 15.925C37.4961 15.4957 37.7154 15.1247 38.0001 14.812C38.2848 14.4947 38.6324 14.2473 39.0431 14.07C39.4538 13.888 39.9158 13.797 40.4291 13.797C40.8538 13.797 41.2458 13.8693 41.6051 14.014C41.9691 14.154 42.2818 14.3593 42.5431 14.63C42.8091 14.896 43.0168 15.2273 43.1661 15.624C43.3154 16.016 43.3901 16.464 43.3901 16.968C43.3901 17.164 43.3691 17.2947 43.3271 17.36C43.2851 17.4253 43.2058 17.458 43.0891 17.458H38.3501C38.3641 17.906 38.4248 18.2957 38.5321 18.627C38.6441 18.9583 38.7981 19.236 38.9941 19.46C39.1901 19.6793 39.4234 19.845 39.6941 19.957C39.9648 20.0643 40.2681 20.118 40.6041 20.118C40.9168 20.118 41.1851 20.083 41.4091 20.013C41.6378 19.9383 41.8338 19.859 41.9971 19.775C42.1604 19.691 42.2958 19.614 42.4031 19.544C42.5151 19.4693 42.6108 19.432 42.6901 19.432C42.7928 19.432 42.8721 19.4717 42.9281 19.551L43.2781 20.006ZM46.1036 15.33C46.3276 14.8447 46.6029 14.4667 46.9296 14.196C47.2563 13.9207 47.6553 13.783 48.1266 13.783C48.2759 13.783 48.4183 13.7993 48.5536 13.832C48.6936 13.8647 48.8173 13.916 48.9246 13.986L48.8336 14.917C48.8056 15.0337 48.7356 15.092 48.6236 15.092C48.5583 15.092 48.4626 15.078 48.3366 15.05C48.2106 15.022 48.0683 15.008 47.9096 15.008C47.6856 15.008 47.4849 15.0407 47.3076 15.106C47.1349 15.1713 46.9786 15.2693 46.8386 15.4C46.7033 15.526 46.5796 15.6847 46.4676 15.876C46.3603 16.0627 46.2623 16.2773 46.1736 16.52V21H44.9206V13.909H45.6346C45.7699 13.909 45.8633 13.9347 45.9146 13.986C45.9659 14.0373 46.0009 14.126 46.0196 14.252L46.1036 15.33ZM54.1092 15.078C54.0532 15.1807 53.9669 15.232 53.8502 15.232C53.7802 15.232 53.7009 15.2063 53.6122 15.155C53.5235 15.1037 53.4139 15.0477 53.2832 14.987C53.1572 14.9217 53.0055 14.8633 52.8282 14.812C52.6509 14.756 52.4409 14.728 52.1982 14.728C51.9882 14.728 51.7992 14.756 51.6312 14.812C51.4632 14.8633 51.3185 14.9357 51.1972 15.029C51.0805 15.1223 50.9895 15.232 50.9242 15.358C50.8635 15.4793 50.8332 15.6123 50.8332 15.757C50.8332 15.939 50.8845 16.0907 50.9872 16.212C51.0945 16.3333 51.2345 16.4383 51.4072 16.527C51.5799 16.6157 51.7759 16.695 51.9952 16.765C52.2145 16.8303 52.4385 16.9027 52.6672 16.982C52.9005 17.0567 53.1269 17.1407 53.3462 17.234C53.5655 17.3273 53.7615 17.444 53.9342 17.584C54.1069 17.724 54.2445 17.8967 54.3472 18.102C54.4545 18.3027 54.5082 18.5453 54.5082 18.83C54.5082 19.1567 54.4499 19.46 54.3332 19.74C54.2165 20.0153 54.0439 20.2557 53.8152 20.461C53.5865 20.6617 53.3065 20.8203 52.9752 20.937C52.6439 21.0537 52.2612 21.112 51.8272 21.112C51.3325 21.112 50.8845 21.0327 50.4832 20.874C50.0819 20.7107 49.7412 20.503 49.4612 20.251L49.7552 19.775C49.7925 19.7143 49.8369 19.6677 49.8882 19.635C49.9395 19.6023 50.0049 19.586 50.0842 19.586C50.1682 19.586 50.2569 19.6187 50.3502 19.684C50.4435 19.7493 50.5555 19.8217 50.6862 19.901C50.8215 19.9803 50.9849 20.0527 51.1762 20.118C51.3675 20.1833 51.6055 20.216 51.8902 20.216C52.1329 20.216 52.3452 20.1857 52.5272 20.125C52.7092 20.0597 52.8609 19.9733 52.9822 19.866C53.1035 19.7587 53.1922 19.635 53.2482 19.495C53.3089 19.355 53.3392 19.2057 53.3392 19.047C53.3392 18.851 53.2855 18.69 53.1782 18.564C53.0755 18.4333 52.9379 18.3237 52.7652 18.235C52.5925 18.1417 52.3942 18.0623 52.1702 17.997C51.9509 17.927 51.7245 17.8547 51.4912 17.78C51.2625 17.7053 51.0362 17.6213 50.8122 17.528C50.5929 17.43 50.3969 17.3087 50.2242 17.164C50.0515 17.0193 49.9115 16.842 49.8042 16.632C49.7015 16.4173 49.6502 16.1583 49.6502 15.855C49.6502 15.5843 49.7062 15.3253 49.8182 15.078C49.9302 14.826 50.0935 14.6067 50.3082 14.42C50.5229 14.2287 50.7865 14.077 51.0992 13.965C51.4119 13.853 51.7689 13.797 52.1702 13.797C52.6369 13.797 53.0545 13.8717 53.4232 14.021C53.7965 14.1657 54.1185 14.3663 54.3892 14.623L54.1092 15.078Z"
    fill="#EEEEEE"/>
  <path d="M71 15L67 20L63 15H71Z"
    fill="#EEEEEE"/>
  <path d="M87 0H494C497.314 0 500 2.68629 500 6V26C500 29.3137 497.314 32 494 32H87V0Z"
    fill="#2B2B2B"/>
  <rect x="119"
    y="7"
    width="180"
    height="18"
    rx="4"
    fill="#444D56"/>
  <path fill-rule="evenodd"
    clip-rule="evenodd"
    d="M131.5 10C127.909 10 125 12.9087 125 16.5C125 19.3762 126.861 21.8056 129.444 22.6669C129.769 22.7238 129.891 22.5288 129.891 22.3581C129.891 22.2038 129.883 21.6919 129.883 21.1475C128.25 21.4481 127.827 20.7494 127.697 20.3837C127.624 20.1969 127.308 19.62 127.031 19.4656C126.804 19.3437 126.479 19.0431 127.023 19.035C127.535 19.0269 127.901 19.5062 128.023 19.7012C128.608 20.6844 129.542 20.4081 129.916 20.2375C129.973 19.815 130.143 19.5306 130.33 19.3681C128.884 19.2056 127.373 18.645 127.373 16.1587C127.373 15.4519 127.624 14.8669 128.039 14.4119C127.974 14.2494 127.746 13.5831 128.104 12.6894C128.104 12.6894 128.648 12.5188 129.891 13.3556C130.411 13.2094 130.964 13.1362 131.516 13.1362C132.069 13.1362 132.621 13.2094 133.141 13.3556C134.384 12.5106 134.929 12.6894 134.929 12.6894C135.286 13.5831 135.059 14.2494 134.994 14.4119C135.408 14.8669 135.66 15.4437 135.66 16.1587C135.66 18.6531 134.141 19.2056 132.694 19.3681C132.93 19.5712 133.133 19.9613 133.133 20.5706C133.133 21.44 133.125 22.1388 133.125 22.3581C133.125 22.5288 133.247 22.7319 133.572 22.6669C134.862 22.2313 135.984 21.402 136.778 20.2957C137.572 19.1894 138 17.8619 138 16.5C138 12.9087 135.091 10 131.5 10Z"
    fill="#FAFBFC"/>
  <path d="M146.936 18.973L146.929 20H141.19V10.6855H146.929V11.7125H142.451V14.8065H146.078V15.7945H142.451V18.973H146.936ZM153.757 13.4155L151.072 20H150.032L147.348 13.4155H148.29C148.386 13.4155 148.464 13.4393 148.524 13.487C148.585 13.5347 148.626 13.591 148.648 13.656L150.318 17.894C150.37 18.0543 150.416 18.2103 150.455 18.362C150.494 18.5137 150.531 18.6653 150.565 18.817C150.6 18.6653 150.637 18.5137 150.676 18.362C150.715 18.2103 150.762 18.0543 150.819 17.894L152.509 13.656C152.535 13.5867 152.578 13.5303 152.639 13.487C152.699 13.4393 152.771 13.4155 152.853 13.4155H153.757ZM159.047 15.9895C159.047 15.7208 159.008 15.476 158.93 15.255C158.856 15.0297 158.746 14.8368 158.599 14.6765C158.456 14.5118 158.28 14.3862 158.072 14.2995C157.864 14.2085 157.628 14.163 157.364 14.163C156.809 14.163 156.369 14.3255 156.044 14.6505C155.723 14.9712 155.524 15.4175 155.446 15.9895H159.047ZM159.983 19.077C159.84 19.2503 159.669 19.402 159.47 19.532C159.27 19.6577 159.056 19.7617 158.826 19.844C158.601 19.9263 158.367 19.987 158.124 20.026C157.881 20.0693 157.641 20.091 157.403 20.091C156.948 20.091 156.527 20.0152 156.142 19.8635C155.76 19.7075 155.429 19.4822 155.147 19.1875C154.87 18.8885 154.653 18.5202 154.497 18.0825C154.341 17.6448 154.263 17.1422 154.263 16.5745C154.263 16.1152 154.332 15.6862 154.471 15.2875C154.614 14.8888 154.818 14.5443 155.082 14.254C155.346 13.9593 155.669 13.7297 156.051 13.565C156.432 13.396 156.861 13.3115 157.338 13.3115C157.732 13.3115 158.096 13.3787 158.43 13.513C158.768 13.643 159.058 13.8337 159.301 14.085C159.548 14.332 159.74 14.6397 159.879 15.008C160.018 15.372 160.087 15.788 160.087 16.256C160.087 16.438 160.068 16.5593 160.029 16.62C159.99 16.6807 159.916 16.711 159.808 16.711H155.407C155.42 17.127 155.476 17.4888 155.576 17.7965C155.68 18.1042 155.823 18.362 156.005 18.57C156.187 18.7737 156.404 18.9275 156.655 19.0315C156.906 19.1312 157.188 19.181 157.5 19.181C157.79 19.181 158.04 19.1485 158.248 19.0835C158.46 19.0142 158.642 18.9405 158.794 18.8625C158.945 18.7845 159.071 18.713 159.171 18.648C159.275 18.5787 159.363 18.544 159.437 18.544C159.532 18.544 159.606 18.5808 159.658 18.6545L159.983 19.077ZM162.607 14.735C162.815 14.2843 163.07 13.9333 163.374 13.682C163.677 13.4263 164.048 13.2985 164.485 13.2985C164.624 13.2985 164.756 13.3137 164.882 13.344C165.012 13.3743 165.127 13.422 165.226 13.487L165.142 14.3515C165.116 14.4598 165.051 14.514 164.947 14.514C164.886 14.514 164.797 14.501 164.68 14.475C164.563 14.449 164.431 14.436 164.284 14.436C164.076 14.436 163.889 14.4663 163.725 14.527C163.564 14.5877 163.419 14.6787 163.289 14.8C163.164 14.917 163.049 15.0643 162.945 15.242C162.845 15.4153 162.754 15.6147 162.672 15.84V20H161.508V13.4155H162.171C162.297 13.4155 162.384 13.4393 162.431 13.487C162.479 13.5347 162.511 13.617 162.529 13.734L162.607 14.735ZM171.925 13.4155L168.252 21.9435C168.213 22.0302 168.163 22.0995 168.103 22.1515C168.046 22.2035 167.957 22.2295 167.836 22.2295H166.978L168.181 19.6165L165.464 13.4155H166.465C166.564 13.4155 166.642 13.4415 166.699 13.4935C166.759 13.5412 166.8 13.5953 166.822 13.656L168.584 17.803C168.653 17.985 168.711 18.1757 168.759 18.375C168.82 18.1713 168.885 17.9785 168.954 17.7965L170.664 13.656C170.69 13.5867 170.733 13.5303 170.794 13.487C170.859 13.4393 170.93 13.4155 171.008 13.4155H171.925ZM174.968 20.104C174.448 20.104 174.047 19.9588 173.766 19.6685C173.488 19.3782 173.35 18.96 173.35 18.414V14.384H172.557C172.487 14.384 172.429 14.3645 172.381 14.3255C172.334 14.2822 172.31 14.2172 172.31 14.1305V13.669L173.389 13.5325L173.655 11.498C173.668 11.433 173.696 11.381 173.74 11.342C173.787 11.2987 173.848 11.277 173.922 11.277H174.507V13.5455H176.411V14.384H174.507V18.336C174.507 18.6133 174.574 18.8192 174.708 18.9535C174.843 19.0878 175.016 19.155 175.228 19.155C175.35 19.155 175.454 19.1398 175.54 19.1095C175.631 19.0748 175.709 19.038 175.774 18.999C175.839 18.96 175.893 18.9253 175.937 18.895C175.984 18.8603 176.026 18.843 176.06 18.843C176.121 18.843 176.175 18.8798 176.223 18.9535L176.561 19.506C176.361 19.6923 176.121 19.8397 175.839 19.948C175.558 20.052 175.267 20.104 174.968 20.104ZM178.769 14.293C179.051 13.994 179.363 13.7557 179.705 13.578C180.048 13.4003 180.442 13.3115 180.888 13.3115C181.248 13.3115 181.564 13.3722 181.837 13.4935C182.115 13.6105 182.344 13.7795 182.526 14.0005C182.713 14.2172 182.854 14.4793 182.949 14.787C183.044 15.0947 183.092 15.4348 183.092 15.8075V20H181.928V15.8075C181.928 15.3092 181.814 14.9235 181.584 14.6505C181.359 14.3732 181.014 14.2345 180.55 14.2345C180.208 14.2345 179.887 14.3168 179.588 14.4815C179.294 14.6462 179.021 14.8693 178.769 15.151V20H177.606V10.4255H178.769V14.293ZM186.077 13.4155V20H184.92V13.4155H186.077ZM186.324 11.3485C186.324 11.4612 186.3 11.5673 186.252 11.667C186.209 11.7623 186.148 11.849 186.07 11.927C185.997 12.0007 185.908 12.0592 185.804 12.1025C185.704 12.1458 185.598 12.1675 185.485 12.1675C185.373 12.1675 185.267 12.1458 185.167 12.1025C185.072 12.0592 184.987 12.0007 184.913 11.927C184.84 11.849 184.781 11.7623 184.738 11.667C184.695 11.5673 184.673 11.4612 184.673 11.3485C184.673 11.2358 184.695 11.1297 184.738 11.03C184.781 10.926 184.84 10.8372 184.913 10.7635C184.987 10.6855 185.072 10.6248 185.167 10.5815C185.267 10.5382 185.373 10.5165 185.485 10.5165C185.598 10.5165 185.704 10.5382 185.804 10.5815C185.908 10.6248 185.997 10.6855 186.07 10.7635C186.148 10.8372 186.209 10.926 186.252 11.03C186.3 11.1297 186.324 11.2358 186.324 11.3485ZM189.07 14.371C189.213 14.2107 189.365 14.0655 189.525 13.9355C189.685 13.8055 189.854 13.695 190.032 13.604C190.214 13.5087 190.405 13.4372 190.604 13.3895C190.808 13.3375 191.027 13.3115 191.261 13.3115C191.62 13.3115 191.937 13.3722 192.21 13.4935C192.487 13.6105 192.717 13.7795 192.899 14.0005C193.085 14.2172 193.226 14.4793 193.321 14.787C193.416 15.0947 193.464 15.4348 193.464 15.8075V20H192.301V15.8075C192.301 15.3092 192.186 14.9235 191.956 14.6505C191.731 14.3732 191.386 14.2345 190.923 14.2345C190.58 14.2345 190.26 14.3168 189.961 14.4815C189.666 14.6462 189.393 14.8693 189.142 15.151V20H187.978V13.4155H188.674C188.838 13.4155 188.94 13.4957 188.979 13.656L189.07 14.371ZM197.522 16.7825C197.756 16.7825 197.961 16.75 198.139 16.685C198.317 16.62 198.466 16.529 198.588 16.412C198.709 16.295 198.8 16.1563 198.861 15.996C198.921 15.8313 198.952 15.6515 198.952 15.4565C198.952 15.0535 198.828 14.7328 198.581 14.4945C198.338 14.2562 197.985 14.137 197.522 14.137C197.054 14.137 196.696 14.2562 196.449 14.4945C196.206 14.7328 196.085 15.0535 196.085 15.4565C196.085 15.6515 196.115 15.8313 196.176 15.996C196.241 16.1563 196.334 16.295 196.456 16.412C196.577 16.529 196.726 16.62 196.904 16.685C197.082 16.75 197.288 16.7825 197.522 16.7825ZM199.608 20.3575C199.608 20.1972 199.563 20.0672 199.472 19.9675C199.381 19.8678 199.257 19.7898 199.101 19.7335C198.949 19.6772 198.772 19.6382 198.568 19.6165C198.364 19.5905 198.148 19.571 197.918 19.558C197.693 19.545 197.463 19.532 197.229 19.519C196.995 19.506 196.77 19.4843 196.553 19.454C196.31 19.5667 196.111 19.7097 195.955 19.883C195.803 20.052 195.728 20.2513 195.728 20.481C195.728 20.6283 195.764 20.7648 195.838 20.8905C195.916 21.0205 196.033 21.131 196.189 21.222C196.345 21.3173 196.54 21.391 196.774 21.443C197.012 21.4993 197.292 21.5275 197.613 21.5275C197.925 21.5275 198.204 21.4993 198.451 21.443C198.698 21.3867 198.906 21.3065 199.075 21.2025C199.248 21.0985 199.381 20.975 199.472 20.832C199.563 20.689 199.608 20.5308 199.608 20.3575ZM200.785 13.6755V14.1045C200.785 14.2475 200.694 14.3385 200.512 14.3775L199.764 14.475C199.911 14.761 199.985 15.0773 199.985 15.424C199.985 15.7447 199.922 16.0372 199.797 16.3015C199.675 16.5615 199.506 16.7847 199.29 16.971C199.073 17.1573 198.813 17.3003 198.51 17.4C198.206 17.4997 197.877 17.5495 197.522 17.5495C197.214 17.5495 196.924 17.5127 196.651 17.439C196.512 17.5257 196.406 17.6188 196.332 17.7185C196.258 17.8138 196.222 17.9113 196.222 18.011C196.222 18.167 196.284 18.2862 196.41 18.3685C196.54 18.4465 196.709 18.5028 196.917 18.5375C197.125 18.5722 197.361 18.5938 197.626 18.6025C197.894 18.6112 198.167 18.6263 198.445 18.648C198.726 18.6653 198.999 18.6978 199.264 18.7455C199.532 18.7932 199.771 18.8712 199.979 18.9795C200.187 19.0878 200.353 19.2373 200.479 19.428C200.609 19.6187 200.674 19.8657 200.674 20.169C200.674 20.4507 200.603 20.7237 200.46 20.988C200.321 21.2523 200.119 21.4863 199.855 21.69C199.591 21.898 199.266 22.0627 198.88 22.184C198.499 22.3097 198.068 22.3725 197.587 22.3725C197.106 22.3725 196.685 22.3248 196.326 22.2295C195.966 22.1342 195.667 22.0063 195.429 21.846C195.19 21.6857 195.01 21.4993 194.889 21.287C194.772 21.079 194.714 20.8602 194.714 20.6305C194.714 20.3055 194.815 20.0303 195.019 19.805C195.223 19.5797 195.502 19.3998 195.858 19.2655C195.663 19.1788 195.507 19.064 195.39 18.921C195.277 18.7737 195.221 18.5765 195.221 18.3295C195.221 18.2342 195.238 18.1367 195.273 18.037C195.307 17.933 195.359 17.8312 195.429 17.7315C195.502 17.6275 195.591 17.53 195.695 17.439C195.799 17.348 195.92 17.2678 196.059 17.1985C195.734 17.0165 195.481 16.776 195.299 16.477C195.117 16.1737 195.026 15.8227 195.026 15.424C195.026 15.1033 195.086 14.813 195.208 14.553C195.333 14.2887 195.507 14.0655 195.728 13.8835C195.949 13.6972 196.211 13.5542 196.514 13.4545C196.822 13.3548 197.158 13.305 197.522 13.305C197.808 13.305 198.074 13.3375 198.321 13.4025C198.568 13.4632 198.793 13.5542 198.997 13.6755H200.785ZM208.876 17.036C208.343 17.0533 207.888 17.0967 207.511 17.166C207.138 17.231 206.832 17.3177 206.594 17.426C206.36 17.5343 206.189 17.6622 206.081 17.8095C205.977 17.9568 205.925 18.1215 205.925 18.3035C205.925 18.4768 205.953 18.6263 206.009 18.752C206.065 18.8777 206.141 18.9817 206.237 19.064C206.336 19.142 206.451 19.2005 206.581 19.2395C206.715 19.2742 206.858 19.2915 207.01 19.2915C207.214 19.2915 207.4 19.272 207.569 19.233C207.738 19.1897 207.896 19.129 208.044 19.051C208.195 18.973 208.338 18.8798 208.473 18.7715C208.611 18.6632 208.746 18.5397 208.876 18.401V17.036ZM205.138 14.345C205.502 13.994 205.894 13.7318 206.315 13.5585C206.735 13.3852 207.201 13.2985 207.712 13.2985C208.08 13.2985 208.408 13.3592 208.694 13.4805C208.98 13.6018 209.22 13.7708 209.415 13.9875C209.61 14.2042 209.757 14.4663 209.857 14.774C209.957 15.0817 210.007 15.4197 210.007 15.788V20H209.493C209.38 20 209.294 19.9827 209.233 19.948C209.172 19.909 209.125 19.8353 209.09 19.727L208.96 19.103C208.787 19.2633 208.618 19.4063 208.453 19.532C208.288 19.6533 208.115 19.7573 207.933 19.844C207.751 19.9263 207.556 19.9892 207.348 20.0325C207.144 20.0802 206.917 20.104 206.666 20.104C206.41 20.104 206.169 20.0693 205.944 20C205.719 19.9263 205.522 19.818 205.353 19.675C205.188 19.532 205.056 19.3522 204.956 19.1355C204.861 18.9145 204.813 18.6545 204.813 18.3555C204.813 18.0955 204.885 17.8463 205.028 17.608C205.171 17.3653 205.402 17.1508 205.723 16.9645C206.044 16.7782 206.462 16.6265 206.978 16.5095C207.493 16.3882 208.126 16.3188 208.876 16.3015V15.788C208.876 15.2767 208.765 14.891 208.544 14.631C208.323 14.3667 208 14.2345 207.576 14.2345C207.29 14.2345 207.049 14.2713 206.854 14.345C206.663 14.4143 206.497 14.4945 206.354 14.5855C206.215 14.6722 206.094 14.7523 205.99 14.826C205.89 14.8953 205.79 14.93 205.691 14.93C205.613 14.93 205.545 14.9105 205.489 14.8715C205.433 14.8282 205.385 14.7762 205.346 14.7155L205.138 14.345ZM215.604 14.501C215.552 14.5963 215.472 14.644 215.364 14.644C215.299 14.644 215.225 14.6202 215.143 14.5725C215.06 14.5248 214.958 14.4728 214.837 14.4165C214.72 14.3558 214.579 14.3017 214.415 14.254C214.25 14.202 214.055 14.176 213.83 14.176C213.635 14.176 213.459 14.202 213.303 14.254C213.147 14.3017 213.013 14.3688 212.9 14.4555C212.792 14.5422 212.707 14.644 212.647 14.761C212.59 14.8737 212.562 14.9972 212.562 15.1315C212.562 15.3005 212.61 15.4413 212.705 15.554C212.805 15.6667 212.935 15.7642 213.095 15.8465C213.255 15.9288 213.437 16.0025 213.641 16.0675C213.845 16.1282 214.053 16.1953 214.265 16.269C214.482 16.3383 214.692 16.4163 214.896 16.503C215.099 16.5897 215.281 16.698 215.442 16.828C215.602 16.958 215.73 17.1183 215.825 17.309C215.925 17.4953 215.975 17.7207 215.975 17.985C215.975 18.2883 215.92 18.57 215.812 18.83C215.704 19.0857 215.543 19.3088 215.331 19.4995C215.119 19.6858 214.859 19.8332 214.551 19.9415C214.243 20.0498 213.888 20.104 213.485 20.104C213.026 20.104 212.61 20.0303 212.237 19.883C211.864 19.7313 211.548 19.5385 211.288 19.3045L211.561 18.8625C211.596 18.8062 211.637 18.7628 211.685 18.7325C211.732 18.7022 211.793 18.687 211.867 18.687C211.945 18.687 212.027 18.7173 212.114 18.778C212.2 18.8387 212.304 18.9058 212.426 18.9795C212.551 19.0532 212.703 19.1203 212.881 19.181C213.058 19.2417 213.279 19.272 213.544 19.272C213.769 19.272 213.966 19.2438 214.135 19.1875C214.304 19.1268 214.445 19.0467 214.558 18.947C214.67 18.8473 214.753 18.7325 214.805 18.6025C214.861 18.4725 214.889 18.3338 214.889 18.1865C214.889 18.0045 214.839 17.855 214.74 17.738C214.644 17.6167 214.516 17.5148 214.356 17.4325C214.196 17.3458 214.012 17.2722 213.804 17.2115C213.6 17.1465 213.39 17.0793 213.173 17.01C212.961 16.9407 212.751 16.8627 212.543 16.776C212.339 16.685 212.157 16.5723 211.997 16.438C211.836 16.3037 211.706 16.139 211.607 15.944C211.511 15.7447 211.464 15.5042 211.464 15.2225C211.464 14.9712 211.516 14.7307 211.62 14.501C211.724 14.267 211.875 14.0633 212.075 13.89C212.274 13.7123 212.519 13.5715 212.809 13.4675C213.099 13.3635 213.431 13.3115 213.804 13.3115C214.237 13.3115 214.625 13.3808 214.967 13.5195C215.314 13.6538 215.613 13.8402 215.864 14.0785L215.604 14.501ZM221.228 14.501C221.176 14.5963 221.096 14.644 220.988 14.644C220.923 14.644 220.849 14.6202 220.767 14.5725C220.684 14.5248 220.582 14.4728 220.461 14.4165C220.344 14.3558 220.203 14.3017 220.039 14.254C219.874 14.202 219.679 14.176 219.454 14.176C219.259 14.176 219.083 14.202 218.927 14.254C218.771 14.3017 218.637 14.3688 218.524 14.4555C218.416 14.5422 218.331 14.644 218.271 14.761C218.214 14.8737 218.186 14.9972 218.186 15.1315C218.186 15.3005 218.234 15.4413 218.329 15.554C218.429 15.6667 218.559 15.7642 218.719 15.8465C218.879 15.9288 219.061 16.0025 219.265 16.0675C219.469 16.1282 219.677 16.1953 219.889 16.269C220.106 16.3383 220.316 16.4163 220.52 16.503C220.723 16.5897 220.905 16.698 221.066 16.828C221.226 16.958 221.354 17.1183 221.449 17.309C221.549 17.4953 221.599 17.7207 221.599 17.985C221.599 18.2883 221.544 18.57 221.436 18.83C221.328 19.0857 221.167 19.3088 220.955 19.4995C220.743 19.6858 220.483 19.8332 220.175 19.9415C219.867 20.0498 219.512 20.104 219.109 20.104C218.65 20.104 218.234 20.0303 217.861 19.883C217.488 19.7313 217.172 19.5385 216.912 19.3045L217.185 18.8625C217.22 18.8062 217.261 18.7628 217.309 18.7325C217.356 18.7022 217.417 18.687 217.491 18.687C217.569 18.687 217.651 18.7173 217.738 18.778C217.824 18.8387 217.928 18.9058 218.05 18.9795C218.175 19.0532 218.327 19.1203 218.505 19.181C218.682 19.2417 218.903 19.272 219.168 19.272C219.393 19.272 219.59 19.2438 219.759 19.1875C219.928 19.1268 220.069 19.0467 220.182 18.947C220.294 18.8473 220.377 18.7325 220.429 18.6025C220.485 18.4725 220.513 18.3338 220.513 18.1865C220.513 18.0045 220.463 17.855 220.364 17.738C220.268 17.6167 220.14 17.5148 219.98 17.4325C219.82 17.3458 219.636 17.2722 219.428 17.2115C219.224 17.1465 219.014 17.0793 218.797 17.01C218.585 16.9407 218.375 16.8627 218.167 16.776C217.963 16.685 217.781 16.5723 217.621 16.438C217.46 16.3037 217.33 16.139 217.231 15.944C217.135 15.7447 217.088 15.5042 217.088 15.2225C217.088 14.9712 217.14 14.7307 217.244 14.501C217.348 14.267 217.499 14.0633 217.699 13.89C217.898 13.7123 218.143 13.5715 218.433 13.4675C218.723 13.3635 219.055 13.3115 219.428 13.3115C219.861 13.3115 220.249 13.3808 220.591 13.5195C220.938 13.6538 221.237 13.8402 221.488 14.0785L221.228 14.501ZM224.239 13.4155V20H223.082V13.4155H224.239ZM224.486 11.3485C224.486 11.4612 224.462 11.5673 224.415 11.667C224.371 11.7623 224.311 11.849 224.233 11.927C224.159 12.0007 224.07 12.0592 223.966 12.1025C223.866 12.1458 223.76 12.1675 223.648 12.1675C223.535 12.1675 223.429 12.1458 223.329 12.1025C223.234 12.0592 223.149 12.0007 223.076 11.927C223.002 11.849 222.943 11.7623 222.9 11.667C222.857 11.5673 222.835 11.4612 222.835 11.3485C222.835 11.2358 222.857 11.1297 222.9 11.03C222.943 10.926 223.002 10.8372 223.076 10.7635C223.149 10.6855 223.234 10.6248 223.329 10.5815C223.429 10.5382 223.535 10.5165 223.648 10.5165C223.76 10.5165 223.866 10.5382 223.966 10.5815C224.07 10.6248 224.159 10.6855 224.233 10.7635C224.311 10.8372 224.371 10.926 224.415 11.03C224.462 11.1297 224.486 11.2358 224.486 11.3485ZM228.435 16.7825C228.669 16.7825 228.874 16.75 229.052 16.685C229.23 16.62 229.379 16.529 229.501 16.412C229.622 16.295 229.713 16.1563 229.774 15.996C229.834 15.8313 229.865 15.6515 229.865 15.4565C229.865 15.0535 229.741 14.7328 229.494 14.4945C229.251 14.2562 228.898 14.137 228.435 14.137C227.967 14.137 227.609 14.2562 227.362 14.4945C227.119 14.7328 226.998 15.0535 226.998 15.4565C226.998 15.6515 227.028 15.8313 227.089 15.996C227.154 16.1563 227.247 16.295 227.369 16.412C227.49 16.529 227.639 16.62 227.817 16.685C227.995 16.75 228.201 16.7825 228.435 16.7825ZM230.521 20.3575C230.521 20.1972 230.476 20.0672 230.385 19.9675C230.294 19.8678 230.17 19.7898 230.014 19.7335C229.862 19.6772 229.685 19.6382 229.481 19.6165C229.277 19.5905 229.061 19.571 228.831 19.558C228.606 19.545 228.376 19.532 228.142 19.519C227.908 19.506 227.683 19.4843 227.466 19.454C227.223 19.5667 227.024 19.7097 226.868 19.883C226.716 20.052 226.641 20.2513 226.641 20.481C226.641 20.6283 226.677 20.7648 226.751 20.8905C226.829 21.0205 226.946 21.131 227.102 21.222C227.258 21.3173 227.453 21.391 227.687 21.443C227.925 21.4993 228.205 21.5275 228.526 21.5275C228.838 21.5275 229.117 21.4993 229.364 21.443C229.611 21.3867 229.819 21.3065 229.988 21.2025C230.161 21.0985 230.294 20.975 230.385 20.832C230.476 20.689 230.521 20.5308 230.521 20.3575ZM231.698 13.6755V14.1045C231.698 14.2475 231.607 14.3385 231.425 14.3775L230.677 14.475C230.824 14.761 230.898 15.0773 230.898 15.424C230.898 15.7447 230.835 16.0372 230.71 16.3015C230.588 16.5615 230.419 16.7847 230.203 16.971C229.986 17.1573 229.726 17.3003 229.423 17.4C229.119 17.4997 228.79 17.5495 228.435 17.5495C228.127 17.5495 227.837 17.5127 227.564 17.439C227.425 17.5257 227.319 17.6188 227.245 17.7185C227.171 17.8138 227.135 17.9113 227.135 18.011C227.135 18.167 227.197 18.2862 227.323 18.3685C227.453 18.4465 227.622 18.5028 227.83 18.5375C228.038 18.5722 228.274 18.5938 228.539 18.6025C228.807 18.6112 229.08 18.6263 229.358 18.648C229.639 18.6653 229.912 18.6978 230.177 18.7455C230.445 18.7932 230.684 18.8712 230.892 18.9795C231.1 19.0878 231.266 19.2373 231.392 19.428C231.522 19.6187 231.587 19.8657 231.587 20.169C231.587 20.4507 231.516 20.7237 231.373 20.988C231.234 21.2523 231.032 21.4863 230.768 21.69C230.504 21.898 230.179 22.0627 229.793 22.184C229.412 22.3097 228.981 22.3725 228.5 22.3725C228.019 22.3725 227.598 22.3248 227.239 22.2295C226.879 22.1342 226.58 22.0063 226.342 21.846C226.103 21.6857 225.923 21.4993 225.802 21.287C225.685 21.079 225.627 20.8602 225.627 20.6305C225.627 20.3055 225.728 20.0303 225.932 19.805C226.136 19.5797 226.415 19.3998 226.771 19.2655C226.576 19.1788 226.42 19.064 226.303 18.921C226.19 18.7737 226.134 18.5765 226.134 18.3295C226.134 18.2342 226.151 18.1367 226.186 18.037C226.22 17.933 226.272 17.8312 226.342 17.7315C226.415 17.6275 226.504 17.53 226.608 17.439C226.712 17.348 226.833 17.2678 226.972 17.1985C226.647 17.0165 226.394 16.776 226.212 16.477C226.03 16.1737 225.939 15.8227 225.939 15.424C225.939 15.1033 225.999 14.813 226.121 14.553C226.246 14.2887 226.42 14.0655 226.641 13.8835C226.862 13.6972 227.124 13.5542 227.427 13.4545C227.735 13.3548 228.071 13.305 228.435 13.305C228.721 13.305 228.987 13.3375 229.234 13.4025C229.481 13.4632 229.706 13.5542 229.91 13.6755H231.698ZM233.986 14.371C234.129 14.2107 234.281 14.0655 234.441 13.9355C234.601 13.8055 234.77 13.695 234.948 13.604C235.13 13.5087 235.321 13.4372 235.52 13.3895C235.724 13.3375 235.943 13.3115 236.177 13.3115C236.536 13.3115 236.853 13.3722 237.126 13.4935C237.403 13.6105 237.633 13.7795 237.815 14.0005C238.001 14.2172 238.142 14.4793 238.237 14.787C238.332 15.0947 238.38 15.4348 238.38 15.8075V20H237.217V15.8075C237.217 15.3092 237.102 14.9235 236.872 14.6505C236.647 14.3732 236.302 14.2345 235.839 14.2345C235.496 14.2345 235.176 14.3168 234.877 14.4815C234.582 14.6462 234.309 14.8693 234.058 15.151V20H232.894V13.4155H233.59C233.754 13.4155 233.856 13.4957 233.895 13.656L233.986 14.371ZM244.55 15.9895C244.55 15.7208 244.511 15.476 244.433 15.255C244.359 15.0297 244.249 14.8368 244.102 14.6765C243.959 14.5118 243.783 14.3862 243.575 14.2995C243.367 14.2085 243.131 14.163 242.867 14.163C242.312 14.163 241.872 14.3255 241.547 14.6505C241.226 14.9712 241.027 15.4175 240.949 15.9895H244.55ZM245.486 19.077C245.343 19.2503 245.172 19.402 244.973 19.532C244.773 19.6577 244.559 19.7617 244.329 19.844C244.104 19.9263 243.87 19.987 243.627 20.026C243.384 20.0693 243.144 20.091 242.906 20.091C242.451 20.091 242.03 20.0152 241.645 19.8635C241.263 19.7075 240.932 19.4822 240.65 19.1875C240.373 18.8885 240.156 18.5202 240 18.0825C239.844 17.6448 239.766 17.1422 239.766 16.5745C239.766 16.1152 239.835 15.6862 239.974 15.2875C240.117 14.8888 240.321 14.5443 240.585 14.254C240.849 13.9593 241.172 13.7297 241.554 13.565C241.935 13.396 242.364 13.3115 242.841 13.3115C243.235 13.3115 243.599 13.3787 243.933 13.513C244.271 13.643 244.561 13.8337 244.804 14.085C245.051 14.332 245.243 14.6397 245.382 15.008C245.521 15.372 245.59 15.788 245.59 16.256C245.59 16.438 245.571 16.5593 245.532 16.62C245.493 16.6807 245.419 16.711 245.311 16.711H240.91C240.923 17.127 240.979 17.4888 241.079 17.7965C241.183 18.1042 241.326 18.362 241.508 18.57C241.69 18.7737 241.907 18.9275 242.158 19.0315C242.409 19.1312 242.691 19.181 243.003 19.181C243.293 19.181 243.543 19.1485 243.751 19.0835C243.963 19.0142 244.145 18.9405 244.297 18.8625C244.448 18.7845 244.574 18.713 244.674 18.648C244.778 18.5787 244.866 18.544 244.94 18.544C245.035 18.544 245.109 18.5808 245.161 18.6545L245.486 19.077ZM251.301 14.982C251.085 14.6917 250.851 14.4902 250.599 14.3775C250.348 14.2605 250.066 14.202 249.754 14.202C249.143 14.202 248.673 14.4208 248.344 14.8585C248.014 15.2962 247.85 15.9202 247.85 16.7305C247.85 17.1595 247.887 17.5278 247.96 17.8355C248.034 18.1388 248.142 18.3902 248.285 18.5895C248.428 18.7845 248.604 18.9275 248.812 19.0185C249.02 19.1095 249.256 19.155 249.52 19.155C249.902 19.155 250.233 19.0683 250.515 18.895C250.801 18.7217 251.063 18.4768 251.301 18.1605V14.982ZM252.458 10.4255V20H251.769C251.605 20 251.501 19.9198 251.457 19.7595L251.353 18.96C251.072 19.298 250.751 19.571 250.391 19.779C250.032 19.987 249.616 20.091 249.143 20.091C248.766 20.091 248.424 20.0195 248.116 19.8765C247.809 19.7292 247.546 19.5147 247.33 19.233C247.113 18.9513 246.946 18.6003 246.829 18.18C246.712 17.7597 246.654 17.2765 246.654 16.7305C246.654 16.2452 246.719 15.7945 246.849 15.3785C246.979 14.9582 247.165 14.5942 247.408 14.2865C247.65 13.9788 247.947 13.7383 248.298 13.565C248.654 13.3873 249.052 13.2985 249.494 13.2985C249.897 13.2985 250.242 13.3678 250.528 13.5065C250.818 13.6408 251.076 13.8293 251.301 14.072V10.4255H252.458ZM259.633 20.104C259.113 20.104 258.712 19.9588 258.431 19.6685C258.153 19.3782 258.015 18.96 258.015 18.414V14.384H257.222C257.152 14.384 257.094 14.3645 257.046 14.3255C256.999 14.2822 256.975 14.2172 256.975 14.1305V13.669L258.054 13.5325L258.32 11.498C258.333 11.433 258.361 11.381 258.405 11.342C258.452 11.2987 258.513 11.277 258.587 11.277H259.172V13.5455H261.076V14.384H259.172V18.336C259.172 18.6133 259.239 18.8192 259.373 18.9535C259.508 19.0878 259.681 19.155 259.893 19.155C260.015 19.155 260.119 19.1398 260.205 19.1095C260.296 19.0748 260.374 19.038 260.439 18.999C260.504 18.96 260.558 18.9253 260.602 18.895C260.649 18.8603 260.691 18.843 260.725 18.843C260.786 18.843 260.84 18.8798 260.888 18.9535L261.226 19.506C261.026 19.6923 260.786 19.8397 260.504 19.948C260.223 20.052 259.932 20.104 259.633 20.104ZM265.008 13.3115C265.489 13.3115 265.923 13.3917 266.308 13.552C266.694 13.7123 267.023 13.9398 267.296 14.2345C267.569 14.5292 267.777 14.8867 267.92 15.307C268.068 15.723 268.141 16.1888 268.141 16.7045C268.141 17.2245 268.068 17.6925 267.92 18.1085C267.777 18.5245 267.569 18.8798 267.296 19.1745C267.023 19.4692 266.694 19.6967 266.308 19.857C265.923 20.013 265.489 20.091 265.008 20.091C264.523 20.091 264.085 20.013 263.695 19.857C263.31 19.6967 262.98 19.4692 262.707 19.1745C262.434 18.8798 262.224 18.5245 262.077 18.1085C261.934 17.6925 261.862 17.2245 261.862 16.7045C261.862 16.1888 261.934 15.723 262.077 15.307C262.224 14.8867 262.434 14.5292 262.707 14.2345C262.98 13.9398 263.31 13.7123 263.695 13.552C264.085 13.3917 264.523 13.3115 265.008 13.3115ZM265.008 19.1875C265.658 19.1875 266.144 18.9708 266.464 18.5375C266.785 18.0998 266.945 17.491 266.945 16.711C266.945 15.9267 266.785 15.3157 266.464 14.878C266.144 14.4403 265.658 14.2215 265.008 14.2215C264.679 14.2215 264.391 14.2778 264.144 14.3905C263.901 14.5032 263.698 14.6657 263.533 14.878C263.373 15.0903 263.251 15.3525 263.169 15.6645C263.091 15.9722 263.052 16.321 263.052 16.711C263.052 17.491 263.212 18.0998 263.533 18.5375C263.858 18.9708 264.35 19.1875 265.008 19.1875ZM278.286 13.4155L274.613 21.9435C274.574 22.0302 274.525 22.0995 274.464 22.1515C274.408 22.2035 274.319 22.2295 274.197 22.2295H273.339L274.542 19.6165L271.825 13.4155H272.826C272.926 13.4155 273.004 13.4415 273.06 13.4935C273.121 13.5412 273.162 13.5953 273.183 13.656L274.945 17.803C275.014 17.985 275.073 18.1757 275.12 18.375C275.181 18.1713 275.246 17.9785 275.315 17.7965L277.025 13.656C277.051 13.5867 277.094 13.5303 277.155 13.487C277.22 13.4393 277.291 13.4155 277.369 13.4155H278.286ZM281.906 13.3115C282.387 13.3115 282.82 13.3917 283.206 13.552C283.592 13.7123 283.921 13.9398 284.194 14.2345C284.467 14.5292 284.675 14.8867 284.818 15.307C284.965 15.723 285.039 16.1888 285.039 16.7045C285.039 17.2245 284.965 17.6925 284.818 18.1085C284.675 18.5245 284.467 18.8798 284.194 19.1745C283.921 19.4692 283.592 19.6967 283.206 19.857C282.82 20.013 282.387 20.091 281.906 20.091C281.421 20.091 280.983 20.013 280.593 19.857C280.207 19.6967 279.878 19.4692 279.605 19.1745C279.332 18.8798 279.122 18.5245 278.974 18.1085C278.831 17.6925 278.76 17.2245 278.76 16.7045C278.76 16.1888 278.831 15.723 278.974 15.307C279.122 14.8867 279.332 14.5292 279.605 14.2345C279.878 13.9398 280.207 13.7123 280.593 13.552C280.983 13.3917 281.421 13.3115 281.906 13.3115ZM281.906 19.1875C282.556 19.1875 283.041 18.9708 283.362 18.5375C283.683 18.0998 283.843 17.491 283.843 16.711C283.843 15.9267 283.683 15.3157 283.362 14.878C283.041 14.4403 282.556 14.2215 281.906 14.2215C281.577 14.2215 281.288 14.2778 281.041 14.3905C280.799 14.5032 280.595 14.6657 280.43 14.878C280.27 15.0903 280.149 15.3525 280.066 15.6645C279.988 15.9722 279.949 16.321 279.949 16.711C279.949 17.491 280.11 18.0998 280.43 18.5375C280.755 18.9708 281.247 19.1875 281.906 19.1875ZM291.921 13.4155V20H291.232C291.067 20 290.963 19.9198 290.92 19.7595L290.829 19.051C290.543 19.3673 290.222 19.623 289.867 19.818C289.512 20.0087 289.104 20.104 288.645 20.104C288.285 20.104 287.967 20.0455 287.689 19.9285C287.416 19.8072 287.187 19.6382 287 19.4215C286.814 19.2048 286.673 18.9427 286.578 18.635C286.487 18.3273 286.441 17.9872 286.441 17.6145V13.4155H287.598V17.6145C287.598 18.1128 287.711 18.4985 287.936 18.7715C288.166 19.0445 288.515 19.181 288.983 19.181C289.325 19.181 289.644 19.1008 289.938 18.9405C290.237 18.7758 290.513 18.5505 290.764 18.2645V13.4155H291.921Z"
    fill="#FAFBFC"/>
  <g clip-path="url(#clip0_234_623)">
    <path fill-rule="evenodd"
      clip-rule="evenodd"
      d="M481 12V14H480.75C480.286 14 479.841 14.1844 479.513 14.5126C479.184 14.8408 479 15.2859 479 15.75V21.25C479 22.216 479.784 23 480.75 23H489.25C489.714 23 490.159 22.8156 490.487 22.4874C490.816 22.1592 491 21.7141 491 21.25V15.75C491 15.2859 490.816 14.8408 490.487 14.5126C490.159 14.1844 489.714 14 489.25 14H489V12C489 10.9391 488.579 9.92172 487.828 9.17157C487.078 8.42143 486.061 8 485 8C483.939 8 482.922 8.42143 482.172 9.17157C481.421 9.92172 481 10.9391 481 12V12ZM487.5 14V12C487.5 11.337 487.237 10.7011 486.768 10.2322C486.299 9.76339 485.663 9.5 485 9.5C484.337 9.5 483.701 9.76339 483.232 10.2322C482.763 10.7011 482.5 11.337 482.5 12V14H487.5ZM489 15.5H489.25C489.316 15.5 489.38 15.5263 489.427 15.5732C489.474 15.6201 489.5 15.6837 489.5 15.75V21.25C489.5 21.3163 489.474 21.3799 489.427 21.4268C489.38 21.4737 489.316 21.5 489.25 21.5H480.75C480.684 21.5 480.62 21.4737 480.573 21.4268C480.526 21.3799 480.5 21.3163 480.5 21.25V15.75C480.5 15.6837 480.526 15.6201 480.573 15.5732C480.62 15.5263 480.684 15.5 480.75 15.5H489Z"
      fill="#FAFBFC"/>
  </g>
  <path fill-rule="evenodd"
    clip-rule="evenodd"
    d="M106.5 16C106.5 17.1932 106.026 18.3376 105.182 19.1813C104.339 20.025 103.194 20.499 102.001 20.499C100.808 20.499 99.6634 20.025 98.8197 19.1813C97.976 18.3376 97.502 17.1932 97.502 16C97.502 14.8068 97.976 13.6625 98.8197 12.8187C99.6634 11.975 100.808 11.501 102.001 11.501C103.194 11.501 104.339 11.975 105.182 12.8187C106.026 13.6625 106.5 14.8068 106.5 16V16ZM105.68 20.74C104.474 21.676 102.957 22.1173 101.438 21.9741C99.9182 21.831 98.5103 21.1141 97.5007 19.9694C96.4911 18.8247 95.9557 17.3383 96.0035 15.8128C96.0513 14.2872 96.6787 12.8372 97.7579 11.758C98.8372 10.6787 100.287 10.0513 101.813 10.0035C103.338 9.95575 104.825 10.4912 105.969 11.5008C107.114 12.5103 107.831 13.9182 107.974 15.4378C108.117 16.9574 107.676 18.4744 106.74 19.68L109.78 22.72C109.854 22.7887 109.913 22.8715 109.954 22.9635C109.995 23.0555 110.017 23.1548 110.019 23.2555C110.02 23.3562 110.002 23.4562 109.964 23.5496C109.926 23.643 109.87 23.7278 109.799 23.799C109.728 23.8703 109.643 23.9264 109.55 23.9641C109.456 24.0018 109.356 24.0204 109.255 24.0186C109.155 24.0168 109.055 23.9948 108.963 23.9538C108.871 23.9128 108.789 23.8537 108.72 23.78L105.68 20.74V20.74Z"
    fill="#EEEEEE"/>
  <rect x="0.5"
    y="0.5"
    width="499"
    height="31"
    rx="5.5"
    stroke="#586069"/>
  <line x1="87.5"
    y1="2.18557e-08"
    x2="87.5"
    y2="32"
    stroke="#586069"/>
  <defs>
    <clipPath id="clip0_234_623">
      <rect width="16"
        height="16"
        fill="white"
        transform="translate(477 8)"/>
    </clipPath>
  </defs>
</svg>
