<svg width="500"
  height="32"
  viewBox="0 0 500 32"
  fill="none"
  xmlns="http://www.w3.org/2000/svg">
  <path d="M0 6C0 2.68629 2.68629 0 6 0H88V32H6C2.68629 32 0 29.3137 0 26V6Z"
    fill="#EEEEEE"/>
  <path d="M19.639 12.075V15.582H23.762V16.688H19.639V21H18.281V10.969H24.462V12.075H19.639ZM27.1917 13.909V21H25.9457V13.909H27.1917ZM27.4577 11.683C27.4577 11.8043 27.432 11.9187 27.3807 12.026C27.334 12.1287 27.2687 12.222 27.1847 12.306C27.1053 12.3853 27.0097 12.4483 26.8977 12.495C26.7903 12.5417 26.676 12.565 26.5547 12.565C26.4333 12.565 26.319 12.5417 26.2117 12.495C26.109 12.4483 26.018 12.3853 25.9387 12.306C25.8593 12.222 25.7963 12.1287 25.7497 12.026C25.703 11.9187 25.6797 11.8043 25.6797 11.683C25.6797 11.5617 25.703 11.4473 25.7497 11.34C25.7963 11.228 25.8593 11.1323 25.9387 11.053C26.018 10.969 26.109 10.9037 26.2117 10.857C26.319 10.8103 26.4333 10.787 26.5547 10.787C26.676 10.787 26.7903 10.8103 26.8977 10.857C27.0097 10.9037 27.1053 10.969 27.1847 11.053C27.2687 11.1323 27.334 11.228 27.3807 11.34C27.432 11.4473 27.4577 11.5617 27.4577 11.683ZM30.527 10.689V21H29.281V10.689H30.527ZM34.7245 21.112C34.1645 21.112 33.7329 20.9557 33.4295 20.643C33.1309 20.3303 32.9815 19.88 32.9815 19.292V14.952H32.1275C32.0529 14.952 31.9899 14.931 31.9385 14.889C31.8872 14.8423 31.8615 14.7723 31.8615 14.679V14.182L33.0235 14.035L33.3105 11.844C33.3245 11.774 33.3549 11.718 33.4015 11.676C33.4529 11.6293 33.5182 11.606 33.5975 11.606H34.2275V14.049H36.2785V14.952H34.2275V19.208C34.2275 19.5067 34.2999 19.7283 34.4445 19.873C34.5892 20.0177 34.7759 20.09 35.0045 20.09C35.1352 20.09 35.2472 20.0737 35.3405 20.041C35.4385 20.0037 35.5225 19.964 35.5925 19.922C35.6625 19.88 35.7209 19.8427 35.7675 19.81C35.8189 19.7727 35.8632 19.754 35.9005 19.754C35.9659 19.754 36.0242 19.7937 36.0755 19.873L36.4395 20.468C36.2249 20.6687 35.9659 20.8273 35.6625 20.944C35.3592 21.056 35.0465 21.112 34.7245 21.112ZM42.2701 16.681C42.2701 16.3917 42.2281 16.128 42.1441 15.89C42.0648 15.6473 41.9458 15.4397 41.7871 15.267C41.6331 15.0897 41.4441 14.9543 41.2201 14.861C40.9961 14.763 40.7418 14.714 40.4571 14.714C39.8598 14.714 39.3861 14.889 39.0361 15.239C38.6908 15.5843 38.4761 16.065 38.3921 16.681H42.2701ZM43.2781 20.006C43.1241 20.1927 42.9398 20.356 42.7251 20.496C42.5104 20.6313 42.2794 20.7433 42.0321 20.832C41.7894 20.9207 41.5374 20.986 41.2761 21.028C41.0148 21.0747 40.7558 21.098 40.4991 21.098C40.0091 21.098 39.5564 21.0163 39.1411 20.853C38.7304 20.685 38.3734 20.4423 38.0701 20.125C37.7714 19.803 37.5381 19.4063 37.3701 18.935C37.2021 18.4637 37.1181 17.9223 37.1181 17.311C37.1181 16.8163 37.1928 16.3543 37.3421 15.925C37.4961 15.4957 37.7154 15.1247 38.0001 14.812C38.2848 14.4947 38.6324 14.2473 39.0431 14.07C39.4538 13.888 39.9158 13.797 40.4291 13.797C40.8538 13.797 41.2458 13.8693 41.6051 14.014C41.9691 14.154 42.2818 14.3593 42.5431 14.63C42.8091 14.896 43.0168 15.2273 43.1661 15.624C43.3154 16.016 43.3901 16.464 43.3901 16.968C43.3901 17.164 43.3691 17.2947 43.3271 17.36C43.2851 17.4253 43.2058 17.458 43.0891 17.458H38.3501C38.3641 17.906 38.4248 18.2957 38.5321 18.627C38.6441 18.9583 38.7981 19.236 38.9941 19.46C39.1901 19.6793 39.4234 19.845 39.6941 19.957C39.9648 20.0643 40.2681 20.118 40.6041 20.118C40.9168 20.118 41.1851 20.083 41.4091 20.013C41.6378 19.9383 41.8338 19.859 41.9971 19.775C42.1604 19.691 42.2958 19.614 42.4031 19.544C42.5151 19.4693 42.6108 19.432 42.6901 19.432C42.7928 19.432 42.8721 19.4717 42.9281 19.551L43.2781 20.006ZM46.1036 15.33C46.3276 14.8447 46.6029 14.4667 46.9296 14.196C47.2563 13.9207 47.6553 13.783 48.1266 13.783C48.2759 13.783 48.4183 13.7993 48.5536 13.832C48.6936 13.8647 48.8173 13.916 48.9246 13.986L48.8336 14.917C48.8056 15.0337 48.7356 15.092 48.6236 15.092C48.5583 15.092 48.4626 15.078 48.3366 15.05C48.2106 15.022 48.0683 15.008 47.9096 15.008C47.6856 15.008 47.4849 15.0407 47.3076 15.106C47.1349 15.1713 46.9786 15.2693 46.8386 15.4C46.7033 15.526 46.5796 15.6847 46.4676 15.876C46.3603 16.0627 46.2623 16.2773 46.1736 16.52V21H44.9206V13.909H45.6346C45.7699 13.909 45.8633 13.9347 45.9146 13.986C45.9659 14.0373 46.0009 14.126 46.0196 14.252L46.1036 15.33ZM54.1092 15.078C54.0532 15.1807 53.9669 15.232 53.8502 15.232C53.7802 15.232 53.7009 15.2063 53.6122 15.155C53.5235 15.1037 53.4139 15.0477 53.2832 14.987C53.1572 14.9217 53.0055 14.8633 52.8282 14.812C52.6509 14.756 52.4409 14.728 52.1982 14.728C51.9882 14.728 51.7992 14.756 51.6312 14.812C51.4632 14.8633 51.3185 14.9357 51.1972 15.029C51.0805 15.1223 50.9895 15.232 50.9242 15.358C50.8635 15.4793 50.8332 15.6123 50.8332 15.757C50.8332 15.939 50.8845 16.0907 50.9872 16.212C51.0945 16.3333 51.2345 16.4383 51.4072 16.527C51.5799 16.6157 51.7759 16.695 51.9952 16.765C52.2145 16.8303 52.4385 16.9027 52.6672 16.982C52.9005 17.0567 53.1269 17.1407 53.3462 17.234C53.5655 17.3273 53.7615 17.444 53.9342 17.584C54.1069 17.724 54.2445 17.8967 54.3472 18.102C54.4545 18.3027 54.5082 18.5453 54.5082 18.83C54.5082 19.1567 54.4499 19.46 54.3332 19.74C54.2165 20.0153 54.0439 20.2557 53.8152 20.461C53.5865 20.6617 53.3065 20.8203 52.9752 20.937C52.6439 21.0537 52.2612 21.112 51.8272 21.112C51.3325 21.112 50.8845 21.0327 50.4832 20.874C50.0819 20.7107 49.7412 20.503 49.4612 20.251L49.7552 19.775C49.7925 19.7143 49.8369 19.6677 49.8882 19.635C49.9395 19.6023 50.0049 19.586 50.0842 19.586C50.1682 19.586 50.2569 19.6187 50.3502 19.684C50.4435 19.7493 50.5555 19.8217 50.6862 19.901C50.8215 19.9803 50.9849 20.0527 51.1762 20.118C51.3675 20.1833 51.6055 20.216 51.8902 20.216C52.1329 20.216 52.3452 20.1857 52.5272 20.125C52.7092 20.0597 52.8609 19.9733 52.9822 19.866C53.1035 19.7587 53.1922 19.635 53.2482 19.495C53.3089 19.355 53.3392 19.2057 53.3392 19.047C53.3392 18.851 53.2855 18.69 53.1782 18.564C53.0755 18.4333 52.9379 18.3237 52.7652 18.235C52.5925 18.1417 52.3942 18.0623 52.1702 17.997C51.9509 17.927 51.7245 17.8547 51.4912 17.78C51.2625 17.7053 51.0362 17.6213 50.8122 17.528C50.5929 17.43 50.3969 17.3087 50.2242 17.164C50.0515 17.0193 49.9115 16.842 49.8042 16.632C49.7015 16.4173 49.6502 16.1583 49.6502 15.855C49.6502 15.5843 49.7062 15.3253 49.8182 15.078C49.9302 14.826 50.0935 14.6067 50.3082 14.42C50.5229 14.2287 50.7865 14.077 51.0992 13.965C51.4119 13.853 51.7689 13.797 52.1702 13.797C52.6369 13.797 53.0545 13.8717 53.4232 14.021C53.7965 14.1657 54.1185 14.3663 54.3892 14.623L54.1092 15.078Z"
    fill="#444D56"/>
  <path d="M71 15L67 20L63 15H71Z"
    fill="#444D56"/>
  <path d="M87 0H494C497.314 0 500 2.68629 500 6V26C500 29.3137 497.314 32 494 32H87V0Z"
    fill="#FAFBFC"/>
  <rect x="119"
    y="7"
    width="89"
    height="18"
    rx="4"
    fill="#444D56"/>
  <path d="M135.881 10.6855V20H134.776V13.1555C134.776 13.0645 134.778 12.967 134.783 12.863C134.791 12.759 134.8 12.6528 134.809 12.5445L131.611 18.3685C131.511 18.5635 131.359 18.661 131.156 18.661H130.974C130.77 18.661 130.618 18.5635 130.519 18.3685L127.256 12.5185C127.282 12.7482 127.295 12.9605 127.295 13.1555V20H126.19V10.6855H127.119C127.232 10.6855 127.318 10.6963 127.379 10.718C127.44 10.7397 127.498 10.8003 127.555 10.9L130.772 16.633C130.824 16.737 130.874 16.8453 130.922 16.958C130.974 17.0707 131.021 17.1855 131.065 17.3025C131.108 17.1855 131.153 17.0707 131.201 16.958C131.249 16.841 131.301 16.7305 131.357 16.6265L134.516 10.9C134.568 10.8003 134.624 10.7397 134.685 10.718C134.75 10.6963 134.839 10.6855 134.952 10.6855H135.881ZM143.518 13.4155L139.846 21.9435C139.807 22.0302 139.757 22.0995 139.696 22.1515C139.64 22.2035 139.551 22.2295 139.43 22.2295H138.572L139.774 19.6165L137.057 13.4155H138.058C138.158 13.4155 138.236 13.4415 138.292 13.4935C138.353 13.5412 138.394 13.5953 138.416 13.656L140.177 17.803C140.247 17.985 140.305 18.1757 140.353 18.375C140.414 18.1713 140.479 17.9785 140.548 17.7965L142.257 13.656C142.283 13.5867 142.327 13.5303 142.387 13.487C142.452 13.4393 142.524 13.4155 142.602 13.4155H143.518ZM155.895 15.346C155.895 16.0437 155.785 16.6785 155.564 17.2505C155.343 17.8225 155.031 18.3122 154.628 18.7195C154.225 19.1268 153.739 19.4432 153.172 19.6685C152.608 19.8895 151.984 20 151.3 20H147.822V10.6855H151.3C151.984 10.6855 152.608 10.7982 153.172 11.0235C153.739 11.2445 154.225 11.5608 154.628 11.9725C155.031 12.3798 155.343 12.8695 155.564 13.4415C155.785 14.0135 155.895 14.6483 155.895 15.346ZM154.602 15.346C154.602 14.774 154.524 14.2627 154.368 13.812C154.212 13.3613 153.991 12.98 153.705 12.668C153.419 12.356 153.072 12.1177 152.665 11.953C152.257 11.7883 151.802 11.706 151.3 11.706H149.083V18.9795H151.3C151.802 18.9795 152.257 18.8972 152.665 18.7325C153.072 18.5678 153.419 18.3317 153.705 18.024C153.991 17.712 154.212 17.3307 154.368 16.88C154.524 16.4293 154.602 15.918 154.602 15.346ZM158.398 14.735C158.606 14.2843 158.861 13.9333 159.165 13.682C159.468 13.4263 159.839 13.2985 160.276 13.2985C160.415 13.2985 160.547 13.3137 160.673 13.344C160.803 13.3743 160.918 13.422 161.017 13.487L160.933 14.3515C160.907 14.4598 160.842 14.514 160.738 14.514C160.677 14.514 160.588 14.501 160.471 14.475C160.354 14.449 160.222 14.436 160.075 14.436C159.867 14.436 159.68 14.4663 159.516 14.527C159.355 14.5877 159.21 14.6787 159.08 14.8C158.955 14.917 158.84 15.0643 158.736 15.242C158.636 15.4153 158.545 15.6147 158.463 15.84V20H157.299V13.4155H157.962C158.088 13.4155 158.175 13.4393 158.222 13.487C158.27 13.5347 158.302 13.617 158.32 13.734L158.398 14.735ZM165.502 17.036C164.969 17.0533 164.514 17.0967 164.137 17.166C163.764 17.231 163.458 17.3177 163.22 17.426C162.986 17.5343 162.815 17.6622 162.707 17.8095C162.603 17.9568 162.551 18.1215 162.551 18.3035C162.551 18.4768 162.579 18.6263 162.635 18.752C162.691 18.8777 162.767 18.9817 162.863 19.064C162.962 19.142 163.077 19.2005 163.207 19.2395C163.341 19.2742 163.484 19.2915 163.636 19.2915C163.84 19.2915 164.026 19.272 164.195 19.233C164.364 19.1897 164.522 19.129 164.67 19.051C164.821 18.973 164.964 18.8798 165.099 18.7715C165.237 18.6632 165.372 18.5397 165.502 18.401V17.036ZM161.764 14.345C162.128 13.994 162.52 13.7318 162.941 13.5585C163.361 13.3852 163.827 13.2985 164.338 13.2985C164.706 13.2985 165.034 13.3592 165.32 13.4805C165.606 13.6018 165.846 13.7708 166.041 13.9875C166.236 14.2042 166.383 14.4663 166.483 14.774C166.583 15.0817 166.633 15.4197 166.633 15.788V20H166.119C166.006 20 165.92 19.9827 165.859 19.948C165.798 19.909 165.751 19.8353 165.716 19.727L165.586 19.103C165.413 19.2633 165.244 19.4063 165.079 19.532C164.914 19.6533 164.741 19.7573 164.559 19.844C164.377 19.9263 164.182 19.9892 163.974 20.0325C163.77 20.0802 163.543 20.104 163.292 20.104C163.036 20.104 162.795 20.0693 162.57 20C162.345 19.9263 162.148 19.818 161.979 19.675C161.814 19.532 161.682 19.3522 161.582 19.1355C161.487 18.9145 161.439 18.6545 161.439 18.3555C161.439 18.0955 161.511 17.8463 161.654 17.608C161.797 17.3653 162.028 17.1508 162.349 16.9645C162.67 16.7782 163.088 16.6265 163.604 16.5095C164.119 16.3882 164.752 16.3188 165.502 16.3015V15.788C165.502 15.2767 165.391 14.891 165.17 14.631C164.949 14.3667 164.626 14.2345 164.202 14.2345C163.916 14.2345 163.675 14.2713 163.48 14.345C163.289 14.4143 163.123 14.4945 162.98 14.5855C162.841 14.6722 162.72 14.7523 162.616 14.826C162.516 14.8953 162.416 14.93 162.317 14.93C162.239 14.93 162.171 14.9105 162.115 14.8715C162.059 14.8282 162.011 14.7762 161.972 14.7155L161.764 14.345ZM174.091 14.384V18.336C174.091 18.6133 174.159 18.8192 174.293 18.9535C174.427 19.0878 174.598 19.155 174.806 19.155C174.932 19.155 175.038 19.1398 175.125 19.1095C175.216 19.0748 175.294 19.038 175.359 18.999C175.424 18.96 175.478 18.9253 175.521 18.895C175.565 18.8603 175.604 18.843 175.638 18.843C175.677 18.843 175.708 18.8517 175.729 18.869C175.755 18.8863 175.781 18.9145 175.807 18.9535L176.145 19.506C175.946 19.6923 175.706 19.8397 175.424 19.948C175.142 20.052 174.85 20.104 174.546 20.104C174.031 20.104 173.632 19.9588 173.35 19.6685C173.073 19.3782 172.934 18.96 172.934 18.414V14.384H169.886V20H168.722V14.4035L167.994 14.319C167.903 14.2973 167.828 14.2648 167.767 14.2215C167.711 14.1738 167.682 14.1067 167.682 14.02V13.5455H168.722V12.9085C168.722 12.5315 168.774 12.1978 168.878 11.9075C168.987 11.6128 169.138 11.3658 169.333 11.1665C169.533 10.9628 169.771 10.809 170.048 10.705C170.326 10.601 170.638 10.549 170.984 10.549C171.279 10.549 171.55 10.5923 171.797 10.679L171.771 11.2575C171.762 11.3615 171.704 11.4178 171.595 11.4265C171.491 11.4352 171.351 11.4395 171.173 11.4395C170.974 11.4395 170.792 11.4655 170.627 11.5175C170.467 11.5695 170.328 11.654 170.211 11.771C170.094 11.888 170.003 12.0418 169.938 12.2325C169.877 12.4232 169.847 12.6593 169.847 12.941V13.5455H172.973L173.233 11.498C173.251 11.433 173.281 11.381 173.324 11.342C173.372 11.2987 173.433 11.277 173.506 11.277H174.091V13.5455H175.989V14.384H174.091ZM183.542 15.515C183.901 15.515 184.218 15.4673 184.491 15.372C184.768 15.2767 185 15.1445 185.186 14.9755C185.377 14.8022 185.52 14.5963 185.615 14.358C185.71 14.1197 185.758 13.8575 185.758 13.5715C185.758 12.9778 185.574 12.5142 185.206 12.1805C184.842 11.8468 184.287 11.68 183.542 11.68H182.047V15.515H183.542ZM183.542 10.6855C184.131 10.6855 184.642 10.7548 185.076 10.8935C185.513 11.0278 185.875 11.2207 186.161 11.472C186.447 11.7233 186.659 12.0267 186.798 12.382C186.941 12.7373 187.013 13.1338 187.013 13.5715C187.013 14.0048 186.937 14.4013 186.785 14.761C186.633 15.1207 186.41 15.4305 186.116 15.6905C185.825 15.9505 185.463 16.1542 185.03 16.3015C184.601 16.4445 184.105 16.516 183.542 16.516H182.047V20H180.792V10.6855H183.542ZM191.18 15.1965C191.544 15.1965 191.865 15.1532 192.142 15.0665C192.424 14.9755 192.658 14.8498 192.844 14.6895C193.035 14.5248 193.178 14.3298 193.273 14.1045C193.368 13.8792 193.416 13.63 193.416 13.357C193.416 12.8023 193.234 12.3842 192.87 12.1025C192.506 11.8208 191.96 11.68 191.232 11.68H189.854V15.1965H191.18ZM195.483 20H194.365C194.135 20 193.966 19.9112 193.858 19.7335L191.44 16.4055C191.366 16.3015 191.286 16.2278 191.2 16.1845C191.117 16.1368 190.987 16.113 190.81 16.113H189.854V20H188.6V10.6855H191.232C191.821 10.6855 192.331 10.7462 192.76 10.8675C193.189 10.9845 193.542 11.1557 193.819 11.381C194.101 11.6063 194.309 11.8793 194.443 12.2C194.577 12.5163 194.645 12.8717 194.645 13.266C194.645 13.5953 194.593 13.903 194.489 14.189C194.385 14.475 194.233 14.7328 194.034 14.9625C193.839 15.1878 193.598 15.3807 193.312 15.541C193.03 15.7013 192.71 15.8227 192.35 15.905C192.51 15.996 192.649 16.1282 192.766 16.3015L195.483 20ZM200.21 14.501C200.158 14.5963 200.078 14.644 199.97 14.644C199.905 14.644 199.831 14.6202 199.749 14.5725C199.667 14.5248 199.565 14.4728 199.443 14.4165C199.326 14.3558 199.186 14.3017 199.021 14.254C198.856 14.202 198.661 14.176 198.436 14.176C198.241 14.176 198.065 14.202 197.909 14.254C197.753 14.3017 197.619 14.3688 197.506 14.4555C197.398 14.5422 197.314 14.644 197.253 14.761C197.197 14.8737 197.168 14.9972 197.168 15.1315C197.168 15.3005 197.216 15.4413 197.311 15.554C197.411 15.6667 197.541 15.7642 197.701 15.8465C197.862 15.9288 198.044 16.0025 198.247 16.0675C198.451 16.1282 198.659 16.1953 198.871 16.269C199.088 16.3383 199.298 16.4163 199.502 16.503C199.706 16.5897 199.888 16.698 200.048 16.828C200.208 16.958 200.336 17.1183 200.431 17.309C200.531 17.4953 200.581 17.7207 200.581 17.985C200.581 18.2883 200.527 18.57 200.418 18.83C200.31 19.0857 200.15 19.3088 199.937 19.4995C199.725 19.6858 199.465 19.8332 199.157 19.9415C198.85 20.0498 198.494 20.104 198.091 20.104C197.632 20.104 197.216 20.0303 196.843 19.883C196.471 19.7313 196.154 19.5385 195.894 19.3045L196.167 18.8625C196.202 18.8062 196.243 18.7628 196.291 18.7325C196.339 18.7022 196.399 18.687 196.473 18.687C196.551 18.687 196.633 18.7173 196.72 18.778C196.807 18.8387 196.911 18.9058 197.032 18.9795C197.158 19.0532 197.309 19.1203 197.487 19.181C197.665 19.2417 197.886 19.272 198.15 19.272C198.375 19.272 198.572 19.2438 198.741 19.1875C198.91 19.1268 199.051 19.0467 199.164 18.947C199.277 18.8473 199.359 18.7325 199.411 18.6025C199.467 18.4725 199.495 18.3338 199.495 18.1865C199.495 18.0045 199.446 17.855 199.346 17.738C199.251 17.6167 199.123 17.5148 198.962 17.4325C198.802 17.3458 198.618 17.2722 198.41 17.2115C198.206 17.1465 197.996 17.0793 197.779 17.01C197.567 16.9407 197.357 16.8627 197.149 16.776C196.945 16.685 196.763 16.5723 196.603 16.438C196.443 16.3037 196.313 16.139 196.213 15.944C196.118 15.7447 196.07 15.5042 196.07 15.2225C196.07 14.9712 196.122 14.7307 196.226 14.501C196.33 14.267 196.482 14.0633 196.681 13.89C196.88 13.7123 197.125 13.5715 197.415 13.4675C197.706 13.3635 198.037 13.3115 198.41 13.3115C198.843 13.3115 199.231 13.3808 199.573 13.5195C199.92 13.6538 200.219 13.8402 200.47 14.0785L200.21 14.501Z"
    fill="#FAFBFC"/>
  <path fill-rule="evenodd"
    clip-rule="evenodd"
    d="M484.655 22.916L485 22.25L485.345 22.916C485.238 22.9711 485.12 22.9998 485 22.9998C484.88 22.9998 484.762 22.9711 484.655 22.916ZM484.655 22.916L485 22.25L485.345 22.916L485.347 22.915L485.353 22.912L485.371 22.902C485.476 22.8477 485.579 22.791 485.681 22.732C486.899 22.0382 488.049 21.2298 489.114 20.318C490.956 18.731 493 16.35 493 13.5C493 10.836 490.914 9 488.75 9C487.203 9 485.847 9.802 485 11.02C484.153 9.802 482.797 9 481.25 9C479.086 9 477 10.836 477 13.5C477 16.35 479.045 18.731 480.885 20.318C482.041 21.306 483.295 22.1719 484.629 22.902L484.647 22.912L484.653 22.915H484.655V22.916Z"
    fill="#2B2B2B"/>
  <path fill-rule="evenodd"
    clip-rule="evenodd"
    d="M106.5 16C106.5 17.1932 106.026 18.3375 105.182 19.1813C104.339 20.025 103.194 20.499 102.001 20.499C100.808 20.499 99.6634 20.025 98.8197 19.1813C97.976 18.3375 97.502 17.1932 97.502 16C97.502 14.8068 97.976 13.6625 98.8197 12.8187C99.6634 11.975 100.808 11.501 102.001 11.501C103.194 11.501 104.339 11.975 105.182 12.8187C106.026 13.6625 106.5 14.8068 106.5 16V16ZM105.68 20.74C104.474 21.676 102.957 22.1173 101.438 21.9741C99.9182 21.831 98.5103 21.1141 97.5007 19.9694C96.4911 18.8247 95.9557 17.3383 96.0035 15.8128C96.0513 14.2872 96.6787 12.8372 97.7579 11.758C98.8372 10.6787 100.287 10.0513 101.813 10.0035C103.338 9.95575 104.825 10.4912 105.969 11.5007C107.114 12.5103 107.831 13.9182 107.974 15.4378C108.117 16.9574 107.676 18.4744 106.74 19.68L109.78 22.72C109.854 22.7887 109.913 22.8715 109.954 22.9635C109.995 23.0555 110.017 23.1548 110.019 23.2555C110.02 23.3562 110.002 23.4562 109.964 23.5496C109.926 23.643 109.87 23.7278 109.799 23.799C109.728 23.8703 109.643 23.9264 109.55 23.9641C109.456 24.0018 109.356 24.0204 109.255 24.0186C109.155 24.0168 109.055 23.9948 108.963 23.9538C108.871 23.9128 108.789 23.8537 108.72 23.78L105.68 20.74V20.74Z"
    fill="#586069"/>
  <rect x="0.5"
    y="0.5"
    width="499"
    height="31"
    rx="5.5"
    stroke="#D1D5DA"/>
  <line x1="87.5"
    y1="2.18557e-08"
    x2="87.5"
    y2="32"
    stroke="#D1D5DA"/>
</svg>
