<svg width="500"
  height="32"
  viewBox="0 0 500 32"
  fill="none"
  xmlns="http://www.w3.org/2000/svg">
  <path d="M0 6C0 2.68629 2.68629 0 6 0H88V32H6C2.68629 32 0 29.3137 0 26V6Z"
    fill="#373E47"/>
  <path d="M19.639 12.075V15.582H23.762V16.688H19.639V21H18.281V10.969H24.462V12.075H19.639ZM27.1917 13.909V21H25.9457V13.909H27.1917ZM27.4577 11.683C27.4577 11.8043 27.432 11.9187 27.3807 12.026C27.334 12.1287 27.2687 12.222 27.1847 12.306C27.1053 12.3853 27.0097 12.4483 26.8977 12.495C26.7903 12.5417 26.676 12.565 26.5547 12.565C26.4333 12.565 26.319 12.5417 26.2117 12.495C26.109 12.4483 26.018 12.3853 25.9387 12.306C25.8593 12.222 25.7963 12.1287 25.7497 12.026C25.703 11.9187 25.6797 11.8043 25.6797 11.683C25.6797 11.5617 25.703 11.4473 25.7497 11.34C25.7963 11.228 25.8593 11.1323 25.9387 11.053C26.018 10.969 26.109 10.9037 26.2117 10.857C26.319 10.8103 26.4333 10.787 26.5547 10.787C26.676 10.787 26.7903 10.8103 26.8977 10.857C27.0097 10.9037 27.1053 10.969 27.1847 11.053C27.2687 11.1323 27.334 11.228 27.3807 11.34C27.432 11.4473 27.4577 11.5617 27.4577 11.683ZM30.527 10.689V21H29.281V10.689H30.527ZM34.7245 21.112C34.1645 21.112 33.7329 20.9557 33.4295 20.643C33.1309 20.3303 32.9815 19.88 32.9815 19.292V14.952H32.1275C32.0529 14.952 31.9899 14.931 31.9385 14.889C31.8872 14.8423 31.8615 14.7723 31.8615 14.679V14.182L33.0235 14.035L33.3105 11.844C33.3245 11.774 33.3549 11.718 33.4015 11.676C33.4529 11.6293 33.5182 11.606 33.5975 11.606H34.2275V14.049H36.2785V14.952H34.2275V19.208C34.2275 19.5067 34.2999 19.7283 34.4445 19.873C34.5892 20.0177 34.7759 20.09 35.0045 20.09C35.1352 20.09 35.2472 20.0737 35.3405 20.041C35.4385 20.0037 35.5225 19.964 35.5925 19.922C35.6625 19.88 35.7209 19.8427 35.7675 19.81C35.8189 19.7727 35.8632 19.754 35.9005 19.754C35.9659 19.754 36.0242 19.7937 36.0755 19.873L36.4395 20.468C36.2249 20.6687 35.9659 20.8273 35.6625 20.944C35.3592 21.056 35.0465 21.112 34.7245 21.112ZM42.2701 16.681C42.2701 16.3917 42.2281 16.128 42.1441 15.89C42.0648 15.6473 41.9458 15.4397 41.7871 15.267C41.6331 15.0897 41.4441 14.9543 41.2201 14.861C40.9961 14.763 40.7418 14.714 40.4571 14.714C39.8598 14.714 39.3861 14.889 39.0361 15.239C38.6908 15.5843 38.4761 16.065 38.3921 16.681H42.2701ZM43.2781 20.006C43.1241 20.1927 42.9398 20.356 42.7251 20.496C42.5104 20.6313 42.2794 20.7433 42.0321 20.832C41.7894 20.9207 41.5374 20.986 41.2761 21.028C41.0148 21.0747 40.7558 21.098 40.4991 21.098C40.0091 21.098 39.5564 21.0163 39.1411 20.853C38.7304 20.685 38.3734 20.4423 38.0701 20.125C37.7714 19.803 37.5381 19.4063 37.3701 18.935C37.2021 18.4637 37.1181 17.9223 37.1181 17.311C37.1181 16.8163 37.1928 16.3543 37.3421 15.925C37.4961 15.4957 37.7154 15.1247 38.0001 14.812C38.2848 14.4947 38.6324 14.2473 39.0431 14.07C39.4538 13.888 39.9158 13.797 40.4291 13.797C40.8538 13.797 41.2458 13.8693 41.6051 14.014C41.9691 14.154 42.2818 14.3593 42.5431 14.63C42.8091 14.896 43.0168 15.2273 43.1661 15.624C43.3154 16.016 43.3901 16.464 43.3901 16.968C43.3901 17.164 43.3691 17.2947 43.3271 17.36C43.2851 17.4253 43.2058 17.458 43.0891 17.458H38.3501C38.3641 17.906 38.4248 18.2957 38.5321 18.627C38.6441 18.9583 38.7981 19.236 38.9941 19.46C39.1901 19.6793 39.4234 19.845 39.6941 19.957C39.9648 20.0643 40.2681 20.118 40.6041 20.118C40.9168 20.118 41.1851 20.083 41.4091 20.013C41.6378 19.9383 41.8338 19.859 41.9971 19.775C42.1604 19.691 42.2958 19.614 42.4031 19.544C42.5151 19.4693 42.6108 19.432 42.6901 19.432C42.7928 19.432 42.8721 19.4717 42.9281 19.551L43.2781 20.006ZM46.1036 15.33C46.3276 14.8447 46.6029 14.4667 46.9296 14.196C47.2563 13.9207 47.6553 13.783 48.1266 13.783C48.2759 13.783 48.4183 13.7993 48.5536 13.832C48.6936 13.8647 48.8173 13.916 48.9246 13.986L48.8336 14.917C48.8056 15.0337 48.7356 15.092 48.6236 15.092C48.5583 15.092 48.4626 15.078 48.3366 15.05C48.2106 15.022 48.0683 15.008 47.9096 15.008C47.6856 15.008 47.4849 15.0407 47.3076 15.106C47.1349 15.1713 46.9786 15.2693 46.8386 15.4C46.7033 15.526 46.5796 15.6847 46.4676 15.876C46.3603 16.0627 46.2623 16.2773 46.1736 16.52V21H44.9206V13.909H45.6346C45.7699 13.909 45.8633 13.9347 45.9146 13.986C45.9659 14.0373 46.0009 14.126 46.0196 14.252L46.1036 15.33ZM54.1092 15.078C54.0532 15.1807 53.9669 15.232 53.8502 15.232C53.7802 15.232 53.7009 15.2063 53.6122 15.155C53.5235 15.1037 53.4139 15.0477 53.2832 14.987C53.1572 14.9217 53.0055 14.8633 52.8282 14.812C52.6509 14.756 52.4409 14.728 52.1982 14.728C51.9882 14.728 51.7992 14.756 51.6312 14.812C51.4632 14.8633 51.3185 14.9357 51.1972 15.029C51.0805 15.1223 50.9895 15.232 50.9242 15.358C50.8635 15.4793 50.8332 15.6123 50.8332 15.757C50.8332 15.939 50.8845 16.0907 50.9872 16.212C51.0945 16.3333 51.2345 16.4383 51.4072 16.527C51.5799 16.6157 51.7759 16.695 51.9952 16.765C52.2145 16.8303 52.4385 16.9027 52.6672 16.982C52.9005 17.0567 53.1269 17.1407 53.3462 17.234C53.5655 17.3273 53.7615 17.444 53.9342 17.584C54.1069 17.724 54.2445 17.8967 54.3472 18.102C54.4545 18.3027 54.5082 18.5453 54.5082 18.83C54.5082 19.1567 54.4499 19.46 54.3332 19.74C54.2165 20.0153 54.0439 20.2557 53.8152 20.461C53.5865 20.6617 53.3065 20.8203 52.9752 20.937C52.6439 21.0537 52.2612 21.112 51.8272 21.112C51.3325 21.112 50.8845 21.0327 50.4832 20.874C50.0819 20.7107 49.7412 20.503 49.4612 20.251L49.7552 19.775C49.7925 19.7143 49.8369 19.6677 49.8882 19.635C49.9395 19.6023 50.0049 19.586 50.0842 19.586C50.1682 19.586 50.2569 19.6187 50.3502 19.684C50.4435 19.7493 50.5555 19.8217 50.6862 19.901C50.8215 19.9803 50.9849 20.0527 51.1762 20.118C51.3675 20.1833 51.6055 20.216 51.8902 20.216C52.1329 20.216 52.3452 20.1857 52.5272 20.125C52.7092 20.0597 52.8609 19.9733 52.9822 19.866C53.1035 19.7587 53.1922 19.635 53.2482 19.495C53.3089 19.355 53.3392 19.2057 53.3392 19.047C53.3392 18.851 53.2855 18.69 53.1782 18.564C53.0755 18.4333 52.9379 18.3237 52.7652 18.235C52.5925 18.1417 52.3942 18.0623 52.1702 17.997C51.9509 17.927 51.7245 17.8547 51.4912 17.78C51.2625 17.7053 51.0362 17.6213 50.8122 17.528C50.5929 17.43 50.3969 17.3087 50.2242 17.164C50.0515 17.0193 49.9115 16.842 49.8042 16.632C49.7015 16.4173 49.6502 16.1583 49.6502 15.855C49.6502 15.5843 49.7062 15.3253 49.8182 15.078C49.9302 14.826 50.0935 14.6067 50.3082 14.42C50.5229 14.2287 50.7865 14.077 51.0992 13.965C51.4119 13.853 51.7689 13.797 52.1702 13.797C52.6369 13.797 53.0545 13.8717 53.4232 14.021C53.7965 14.1657 54.1185 14.3663 54.3892 14.623L54.1092 15.078Z"
    fill="#EEEEEE"/>
  <path d="M71 15L67 20L63 15H71Z"
    fill="#EEEEEE"/>
  <path d="M87 0H494C497.314 0 500 2.68629 500 6V26C500 29.3137 497.314 32 494 32H87V0Z"
    fill="#2B2B2B"/>
  <path fill-rule="evenodd"
    clip-rule="evenodd"
    d="M481.25 10.5C479.914 10.5 478.5 11.664 478.5 13.5C478.5 15.65 480.08 17.644 481.865 19.182C482.839 20.0151 483.888 20.7553 485 21.393C486.112 20.7553 487.161 20.0151 488.135 19.182C489.92 17.644 491.5 15.65 491.5 13.5C491.5 11.664 490.086 10.5 488.75 10.5C487.377 10.5 486.141 11.486 485.721 12.956C485.676 13.1126 485.582 13.2503 485.451 13.3484C485.321 13.4464 485.163 13.4995 485 13.4995C484.837 13.4995 484.679 13.4464 484.549 13.3484C484.418 13.2503 484.324 13.1126 484.279 12.956C483.859 11.486 482.623 10.5 481.25 10.5ZM485 22.25L484.655 22.916L484.653 22.915L484.647 22.912L484.629 22.902C484.524 22.8477 484.421 22.791 484.319 22.732C483.1 22.0382 481.95 21.2299 480.885 20.318C479.045 18.731 477 16.35 477 13.5C477 10.836 479.086 9 481.25 9C482.797 9 484.153 9.802 485 11.02C485.847 9.802 487.203 9 488.75 9C490.914 9 493 10.836 493 13.5C493 16.35 490.955 18.731 489.115 20.318C487.959 21.3059 486.705 22.1719 485.371 22.902L485.353 22.912L485.347 22.915H485.345L485 22.25ZM485 22.25L485.345 22.916C485.238 22.9711 485.12 22.9998 485 22.9998C484.88 22.9998 484.762 22.9711 484.655 22.916L485 22.25Z"
    fill="#FAFBFC"/>
  <path fill-rule="evenodd"
    clip-rule="evenodd"
    d="M106.5 16C106.5 17.1932 106.026 18.3376 105.182 19.1813C104.339 20.025 103.194 20.499 102.001 20.499C100.808 20.499 99.6634 20.025 98.8197 19.1813C97.976 18.3376 97.502 17.1932 97.502 16C97.502 14.8068 97.976 13.6625 98.8197 12.8187C99.6634 11.975 100.808 11.501 102.001 11.501C103.194 11.501 104.339 11.975 105.182 12.8187C106.026 13.6625 106.5 14.8068 106.5 16V16ZM105.68 20.74C104.474 21.676 102.957 22.1173 101.438 21.9741C99.9182 21.831 98.5103 21.1141 97.5007 19.9694C96.4911 18.8247 95.9557 17.3383 96.0035 15.8128C96.0513 14.2872 96.6787 12.8372 97.7579 11.758C98.8372 10.6787 100.287 10.0513 101.813 10.0035C103.338 9.95575 104.825 10.4912 105.969 11.5008C107.114 12.5103 107.831 13.9182 107.974 15.4378C108.117 16.9574 107.676 18.4744 106.74 19.68L109.78 22.72C109.854 22.7887 109.913 22.8715 109.954 22.9635C109.995 23.0555 110.017 23.1548 110.019 23.2555C110.02 23.3562 110.002 23.4562 109.964 23.5496C109.926 23.643 109.87 23.7278 109.799 23.799C109.728 23.8703 109.643 23.9264 109.55 23.9641C109.456 24.0018 109.356 24.0204 109.255 24.0186C109.155 24.0168 109.055 23.9948 108.963 23.9538C108.871 23.9128 108.789 23.8537 108.72 23.78L105.68 20.74V20.74Z"
    fill="#EEEEEE"/>
  <rect x="0.5"
    y="0.5"
    width="499"
    height="31"
    rx="5.5"
    stroke="#586069"/>
  <line x1="87.5"
    y1="2.18557e-08"
    x2="87.5"
    y2="32"
    stroke="#586069"/>
  <path d="M122.139 14.4155V21H120.982V14.4155H122.139ZM122.386 12.3485C122.386 12.4612 122.362 12.5673 122.314 12.667C122.271 12.7623 122.21 12.849 122.132 12.927C122.058 13.0007 121.97 13.0592 121.866 13.1025C121.766 13.1458 121.66 13.1675 121.547 13.1675C121.434 13.1675 121.328 13.1458 121.229 13.1025C121.133 13.0592 121.049 13.0007 120.975 12.927C120.901 12.849 120.843 12.7623 120.8 12.667C120.756 12.5673 120.735 12.4612 120.735 12.3485C120.735 12.2358 120.756 12.1297 120.8 12.03C120.843 11.926 120.901 11.8372 120.975 11.7635C121.049 11.6855 121.133 11.6248 121.229 11.5815C121.328 11.5382 121.434 11.5165 121.547 11.5165C121.66 11.5165 121.766 11.5382 121.866 11.5815C121.97 11.6248 122.058 11.6855 122.132 11.7635C122.21 11.8372 122.271 11.926 122.314 12.03C122.362 12.1297 122.386 12.2358 122.386 12.3485ZM127.875 15.501C127.823 15.5963 127.742 15.644 127.634 15.644C127.569 15.644 127.495 15.6202 127.413 15.5725C127.331 15.5248 127.229 15.4728 127.108 15.4165C126.991 15.3558 126.85 15.3017 126.685 15.254C126.52 15.202 126.325 15.176 126.1 15.176C125.905 15.176 125.73 15.202 125.574 15.254C125.418 15.3017 125.283 15.3688 125.171 15.4555C125.062 15.5422 124.978 15.644 124.917 15.761C124.861 15.8737 124.833 15.9972 124.833 16.1315C124.833 16.3005 124.88 16.4413 124.976 16.554C125.075 16.6667 125.205 16.7642 125.366 16.8465C125.526 16.9288 125.708 17.0025 125.912 17.0675C126.115 17.1282 126.323 17.1953 126.536 17.269C126.752 17.3383 126.962 17.4163 127.166 17.503C127.37 17.5897 127.552 17.698 127.712 17.828C127.872 17.958 128 18.1183 128.096 18.309C128.195 18.4953 128.245 18.7207 128.245 18.985C128.245 19.2883 128.191 19.57 128.083 19.83C127.974 20.0857 127.814 20.3088 127.602 20.4995C127.389 20.6858 127.129 20.8332 126.822 20.9415C126.514 21.0498 126.159 21.104 125.756 21.104C125.296 21.104 124.88 21.0303 124.508 20.883C124.135 20.7313 123.819 20.5385 123.559 20.3045L123.832 19.8625C123.866 19.8062 123.907 19.7628 123.955 19.7325C124.003 19.7022 124.063 19.687 124.137 19.687C124.215 19.687 124.297 19.7173 124.384 19.778C124.471 19.8387 124.575 19.9058 124.696 19.9795C124.822 20.0532 124.973 20.1203 125.151 20.181C125.329 20.2417 125.55 20.272 125.814 20.272C126.039 20.272 126.237 20.2438 126.406 20.1875C126.575 20.1268 126.715 20.0467 126.828 19.947C126.941 19.8473 127.023 19.7325 127.075 19.6025C127.131 19.4725 127.16 19.3338 127.16 19.1865C127.16 19.0045 127.11 18.855 127.01 18.738C126.915 18.6167 126.787 18.5148 126.627 18.4325C126.466 18.3458 126.282 18.2722 126.074 18.2115C125.87 18.1465 125.66 18.0793 125.444 18.01C125.231 17.9407 125.021 17.8627 124.813 17.776C124.609 17.685 124.427 17.5723 124.267 17.438C124.107 17.3037 123.977 17.139 123.877 16.944C123.782 16.7447 123.734 16.5042 123.734 16.2225C123.734 15.9712 123.786 15.7307 123.89 15.501C123.994 15.267 124.146 15.0633 124.345 14.89C124.544 14.7123 124.789 14.5715 125.08 14.4675C125.37 14.3635 125.701 14.3115 126.074 14.3115C126.507 14.3115 126.895 14.3808 127.238 14.5195C127.584 14.6538 127.883 14.8402 128.135 15.0785L127.875 15.501ZM129.56 20.285C129.56 20.1723 129.579 20.0662 129.618 19.9665C129.661 19.8668 129.718 19.7802 129.787 19.7065C129.861 19.6328 129.947 19.5743 130.047 19.531C130.147 19.4877 130.253 19.466 130.366 19.466C130.478 19.466 130.584 19.4877 130.684 19.531C130.784 19.5743 130.87 19.6328 130.944 19.7065C131.018 19.7802 131.076 19.8668 131.12 19.9665C131.163 20.0662 131.185 20.1723 131.185 20.285C131.185 20.402 131.163 20.5103 131.12 20.61C131.076 20.7053 131.018 20.7898 130.944 20.8635C130.87 20.9372 130.784 20.9935 130.684 21.0325C130.584 21.0758 130.478 21.0975 130.366 21.0975C130.253 21.0975 130.147 21.0758 130.047 21.0325C129.947 20.9935 129.861 20.9372 129.787 20.8635C129.718 20.7898 129.661 20.7053 129.618 20.61C129.579 20.5103 129.56 20.402 129.56 20.285ZM129.56 15.41C129.56 15.2973 129.579 15.1912 129.618 15.0915C129.661 14.9918 129.718 14.9052 129.787 14.8315C129.861 14.7578 129.947 14.6993 130.047 14.656C130.147 14.6127 130.253 14.591 130.366 14.591C130.478 14.591 130.584 14.6127 130.684 14.656C130.784 14.6993 130.87 14.7578 130.944 14.8315C131.018 14.9052 131.076 14.9918 131.12 15.0915C131.163 15.1912 131.185 15.2973 131.185 15.41C131.185 15.527 131.163 15.6353 131.12 15.735C131.076 15.8303 131.018 15.9148 130.944 15.9885C130.87 16.0622 130.784 16.1207 130.684 16.164C130.584 16.203 130.478 16.2225 130.366 16.2225C130.253 16.2225 130.147 16.203 130.047 16.164C129.947 16.1207 129.861 16.0622 129.787 15.9885C129.718 15.9148 129.661 15.8303 129.618 15.735C129.579 15.6353 129.56 15.527 129.56 15.41ZM135.689 14.3115C136.17 14.3115 136.603 14.3917 136.989 14.552C137.375 14.7123 137.704 14.9398 137.977 15.2345C138.25 15.5292 138.458 15.8867 138.601 16.307C138.748 16.723 138.822 17.1888 138.822 17.7045C138.822 18.2245 138.748 18.6925 138.601 19.1085C138.458 19.5245 138.25 19.8798 137.977 20.1745C137.704 20.4692 137.375 20.6967 136.989 20.857C136.603 21.013 136.17 21.091 135.689 21.091C135.204 21.091 134.766 21.013 134.376 20.857C133.99 20.6967 133.661 20.4692 133.388 20.1745C133.115 19.8798 132.905 19.5245 132.758 19.1085C132.615 18.6925 132.543 18.2245 132.543 17.7045C132.543 17.1888 132.615 16.723 132.758 16.307C132.905 15.8867 133.115 15.5292 133.388 15.2345C133.661 14.9398 133.99 14.7123 134.376 14.552C134.766 14.3917 135.204 14.3115 135.689 14.3115ZM135.689 20.1875C136.339 20.1875 136.824 19.9708 137.145 19.5375C137.466 19.0998 137.626 18.491 137.626 17.711C137.626 16.9267 137.466 16.3157 137.145 15.878C136.824 15.4403 136.339 15.2215 135.689 15.2215C135.36 15.2215 135.072 15.2778 134.825 15.3905C134.582 15.5032 134.378 15.6657 134.214 15.878C134.053 16.0903 133.932 16.3525 133.85 16.6645C133.772 16.9722 133.733 17.321 133.733 17.711C133.733 18.491 133.893 19.0998 134.214 19.5375C134.539 19.9708 135.03 20.1875 135.689 20.1875ZM141.453 19.414C141.665 19.7 141.897 19.9015 142.149 20.0185C142.4 20.1355 142.682 20.194 142.994 20.194C143.609 20.194 144.081 19.9752 144.411 19.5375C144.74 19.0998 144.905 18.4758 144.905 17.6655C144.905 17.2365 144.866 16.8682 144.788 16.5605C144.714 16.2528 144.606 16.0015 144.463 15.8065C144.32 15.6072 144.144 15.462 143.936 15.371C143.728 15.28 143.492 15.2345 143.228 15.2345C142.851 15.2345 142.519 15.3212 142.233 15.4945C141.951 15.6678 141.691 15.9127 141.453 16.229V19.414ZM141.395 15.436C141.672 15.0937 141.993 14.8185 142.357 14.6105C142.721 14.4025 143.137 14.2985 143.605 14.2985C143.986 14.2985 144.33 14.3722 144.638 14.5195C144.946 14.6625 145.208 14.877 145.425 15.163C145.641 15.4447 145.808 15.7957 145.925 16.216C146.042 16.6363 146.101 17.1195 146.101 17.6655C146.101 18.1508 146.036 18.6037 145.906 19.024C145.776 19.44 145.587 19.8018 145.34 20.1095C145.097 20.4128 144.798 20.6533 144.443 20.831C144.092 21.0043 143.696 21.091 143.254 21.091C142.851 21.091 142.504 21.0238 142.214 20.8895C141.928 20.7508 141.674 20.5602 141.453 20.3175V23.2295H140.29V14.4155H140.985C141.15 14.4155 141.252 14.4957 141.291 14.656L141.395 15.436ZM151.984 16.9895C151.984 16.7208 151.945 16.476 151.867 16.255C151.793 16.0297 151.682 15.8368 151.535 15.6765C151.392 15.5118 151.217 15.3862 151.009 15.2995C150.801 15.2085 150.564 15.163 150.3 15.163C149.745 15.163 149.306 15.3255 148.981 15.6505C148.66 15.9712 148.461 16.4175 148.383 16.9895H151.984ZM152.92 20.077C152.777 20.2503 152.605 20.402 152.406 20.532C152.207 20.6577 151.992 20.7617 151.763 20.844C151.537 20.9263 151.303 20.987 151.061 21.026C150.818 21.0693 150.577 21.091 150.339 21.091C149.884 21.091 149.464 21.0152 149.078 20.8635C148.697 20.7075 148.365 20.4822 148.084 20.1875C147.806 19.8885 147.59 19.5202 147.434 19.0825C147.278 18.6448 147.2 18.1422 147.2 17.5745C147.2 17.1152 147.269 16.6862 147.408 16.2875C147.551 15.8888 147.754 15.5443 148.019 15.254C148.283 14.9593 148.606 14.7297 148.987 14.565C149.368 14.396 149.797 14.3115 150.274 14.3115C150.668 14.3115 151.032 14.3787 151.366 14.513C151.704 14.643 151.994 14.8337 152.237 15.085C152.484 15.332 152.677 15.6397 152.816 16.008C152.954 16.372 153.024 16.788 153.024 17.256C153.024 17.438 153.004 17.5593 152.965 17.62C152.926 17.6807 152.852 17.711 152.744 17.711H148.344C148.357 18.127 148.413 18.4888 148.513 18.7965C148.617 19.1042 148.76 19.362 148.942 19.57C149.124 19.7737 149.34 19.9275 149.592 20.0315C149.843 20.1312 150.125 20.181 150.437 20.181C150.727 20.181 150.976 20.1485 151.184 20.0835C151.396 20.0142 151.578 19.9405 151.73 19.8625C151.882 19.7845 152.007 19.713 152.107 19.648C152.211 19.5787 152.3 19.544 152.374 19.544C152.469 19.544 152.543 19.5808 152.595 19.6545L152.92 20.077ZM155.537 15.371C155.68 15.2107 155.831 15.0655 155.992 14.9355C156.152 14.8055 156.321 14.695 156.499 14.604C156.681 14.5087 156.871 14.4372 157.071 14.3895C157.274 14.3375 157.493 14.3115 157.727 14.3115C158.087 14.3115 158.403 14.3722 158.676 14.4935C158.954 14.6105 159.183 14.7795 159.365 15.0005C159.552 15.2172 159.692 15.4793 159.788 15.787C159.883 16.0947 159.931 16.4348 159.931 16.8075V21H158.767V16.8075C158.767 16.3092 158.652 15.9235 158.423 15.6505C158.197 15.3732 157.853 15.2345 157.389 15.2345C157.047 15.2345 156.726 15.3168 156.427 15.4815C156.133 15.6462 155.86 15.8693 155.608 16.151V21H154.445V14.4155H155.14C155.305 14.4155 155.407 14.4957 155.446 14.656L155.537 15.371ZM166.242 14.4155V21H165.085V14.4155H166.242ZM166.489 12.3485C166.489 12.4612 166.465 12.5673 166.418 12.667C166.374 12.7623 166.314 12.849 166.236 12.927C166.162 13.0007 166.073 13.0592 165.969 13.1025C165.869 13.1458 165.763 13.1675 165.651 13.1675C165.538 13.1675 165.432 13.1458 165.332 13.1025C165.237 13.0592 165.152 13.0007 165.079 12.927C165.005 12.849 164.946 12.7623 164.903 12.667C164.86 12.5673 164.838 12.4612 164.838 12.3485C164.838 12.2358 164.86 12.1297 164.903 12.03C164.946 11.926 165.005 11.8372 165.079 11.7635C165.152 11.6855 165.237 11.6248 165.332 11.5815C165.432 11.5382 165.538 11.5165 165.651 11.5165C165.763 11.5165 165.869 11.5382 165.969 11.5815C166.073 11.6248 166.162 11.6855 166.236 11.7635C166.314 11.8372 166.374 11.926 166.418 12.03C166.465 12.1297 166.489 12.2358 166.489 12.3485ZM171.978 15.501C171.926 15.5963 171.846 15.644 171.738 15.644C171.673 15.644 171.599 15.6202 171.517 15.5725C171.434 15.5248 171.332 15.4728 171.211 15.4165C171.094 15.3558 170.953 15.3017 170.789 15.254C170.624 15.202 170.429 15.176 170.204 15.176C170.009 15.176 169.833 15.202 169.677 15.254C169.521 15.3017 169.387 15.3688 169.274 15.4555C169.166 15.5422 169.081 15.644 169.021 15.761C168.964 15.8737 168.936 15.9972 168.936 16.1315C168.936 16.3005 168.984 16.4413 169.079 16.554C169.179 16.6667 169.309 16.7642 169.469 16.8465C169.629 16.9288 169.811 17.0025 170.015 17.0675C170.219 17.1282 170.427 17.1953 170.639 17.269C170.856 17.3383 171.066 17.4163 171.27 17.503C171.473 17.5897 171.655 17.698 171.816 17.828C171.976 17.958 172.104 18.1183 172.199 18.309C172.299 18.4953 172.349 18.7207 172.349 18.985C172.349 19.2883 172.294 19.57 172.186 19.83C172.078 20.0857 171.917 20.3088 171.705 20.4995C171.493 20.6858 171.233 20.8332 170.925 20.9415C170.617 21.0498 170.262 21.104 169.859 21.104C169.4 21.104 168.984 21.0303 168.611 20.883C168.238 20.7313 167.922 20.5385 167.662 20.3045L167.935 19.8625C167.97 19.8062 168.011 19.7628 168.059 19.7325C168.106 19.7022 168.167 19.687 168.241 19.687C168.319 19.687 168.401 19.7173 168.488 19.778C168.574 19.8387 168.678 19.9058 168.8 19.9795C168.925 20.0532 169.077 20.1203 169.255 20.181C169.432 20.2417 169.653 20.272 169.918 20.272C170.143 20.272 170.34 20.2438 170.509 20.1875C170.678 20.1268 170.819 20.0467 170.932 19.947C171.044 19.8473 171.127 19.7325 171.179 19.6025C171.235 19.4725 171.263 19.3338 171.263 19.1865C171.263 19.0045 171.213 18.855 171.114 18.738C171.018 18.6167 170.89 18.5148 170.73 18.4325C170.57 18.3458 170.386 18.2722 170.178 18.2115C169.974 18.1465 169.764 18.0793 169.547 18.01C169.335 17.9407 169.125 17.8627 168.917 17.776C168.713 17.685 168.531 17.5723 168.371 17.438C168.21 17.3037 168.08 17.139 167.981 16.944C167.885 16.7447 167.838 16.5042 167.838 16.2225C167.838 15.9712 167.89 15.7307 167.994 15.501C168.098 15.267 168.249 15.0633 168.449 14.89C168.648 14.7123 168.893 14.5715 169.183 14.4675C169.473 14.3635 169.805 14.3115 170.178 14.3115C170.611 14.3115 170.999 14.3808 171.341 14.5195C171.688 14.6538 171.987 14.8402 172.238 15.0785L171.978 15.501ZM173.663 20.285C173.663 20.1723 173.683 20.0662 173.722 19.9665C173.765 19.8668 173.821 19.7802 173.891 19.7065C173.964 19.6328 174.051 19.5743 174.151 19.531C174.25 19.4877 174.356 19.466 174.469 19.466C174.582 19.466 174.688 19.4877 174.788 19.531C174.887 19.5743 174.974 19.6328 175.048 19.7065C175.121 19.7802 175.18 19.8668 175.223 19.9665C175.266 20.0662 175.288 20.1723 175.288 20.285C175.288 20.402 175.266 20.5103 175.223 20.61C175.18 20.7053 175.121 20.7898 175.048 20.8635C174.974 20.9372 174.887 20.9935 174.788 21.0325C174.688 21.0758 174.582 21.0975 174.469 21.0975C174.356 21.0975 174.25 21.0758 174.151 21.0325C174.051 20.9935 173.964 20.9372 173.891 20.8635C173.821 20.7898 173.765 20.7053 173.722 20.61C173.683 20.5103 173.663 20.402 173.663 20.285ZM173.663 15.41C173.663 15.2973 173.683 15.1912 173.722 15.0915C173.765 14.9918 173.821 14.9052 173.891 14.8315C173.964 14.7578 174.051 14.6993 174.151 14.656C174.25 14.6127 174.356 14.591 174.469 14.591C174.582 14.591 174.688 14.6127 174.788 14.656C174.887 14.6993 174.974 14.7578 175.048 14.8315C175.121 14.9052 175.18 14.9918 175.223 15.0915C175.266 15.1912 175.288 15.2973 175.288 15.41C175.288 15.527 175.266 15.6353 175.223 15.735C175.18 15.8303 175.121 15.9148 175.048 15.9885C174.974 16.0622 174.887 16.1207 174.788 16.164C174.688 16.203 174.582 16.2225 174.469 16.2225C174.356 16.2225 174.25 16.203 174.151 16.164C174.051 16.1207 173.964 16.0622 173.891 15.9885C173.821 15.9148 173.765 15.8303 173.722 15.735C173.683 15.6353 173.663 15.527 173.663 15.41ZM178.239 14.4155V21H177.082V14.4155H178.239ZM178.486 12.3485C178.486 12.4612 178.462 12.5673 178.415 12.667C178.371 12.7623 178.311 12.849 178.233 12.927C178.159 13.0007 178.07 13.0592 177.966 13.1025C177.866 13.1458 177.76 13.1675 177.648 13.1675C177.535 13.1675 177.429 13.1458 177.329 13.1025C177.234 13.0592 177.149 13.0007 177.076 12.927C177.002 12.849 176.943 12.7623 176.9 12.667C176.857 12.5673 176.835 12.4612 176.835 12.3485C176.835 12.2358 176.857 12.1297 176.9 12.03C176.943 11.926 177.002 11.8372 177.076 11.7635C177.149 11.6855 177.234 11.6248 177.329 11.5815C177.429 11.5382 177.535 11.5165 177.648 11.5165C177.76 11.5165 177.866 11.5382 177.966 11.5815C178.07 11.6248 178.159 11.6855 178.233 11.7635C178.311 11.8372 178.371 11.926 178.415 12.03C178.462 12.1297 178.486 12.2358 178.486 12.3485ZM183.975 15.501C183.923 15.5963 183.843 15.644 183.735 15.644C183.67 15.644 183.596 15.6202 183.514 15.5725C183.431 15.5248 183.329 15.4728 183.208 15.4165C183.091 15.3558 182.95 15.3017 182.786 15.254C182.621 15.202 182.426 15.176 182.201 15.176C182.006 15.176 181.83 15.202 181.674 15.254C181.518 15.3017 181.384 15.3688 181.271 15.4555C181.163 15.5422 181.078 15.644 181.018 15.761C180.961 15.8737 180.933 15.9972 180.933 16.1315C180.933 16.3005 180.981 16.4413 181.076 16.554C181.176 16.6667 181.306 16.7642 181.466 16.8465C181.626 16.9288 181.808 17.0025 182.012 17.0675C182.216 17.1282 182.424 17.1953 182.636 17.269C182.853 17.3383 183.063 17.4163 183.267 17.503C183.47 17.5897 183.652 17.698 183.813 17.828C183.973 17.958 184.101 18.1183 184.196 18.309C184.296 18.4953 184.346 18.7207 184.346 18.985C184.346 19.2883 184.291 19.57 184.183 19.83C184.075 20.0857 183.914 20.3088 183.702 20.4995C183.49 20.6858 183.23 20.8332 182.922 20.9415C182.614 21.0498 182.259 21.104 181.856 21.104C181.397 21.104 180.981 21.0303 180.608 20.883C180.235 20.7313 179.919 20.5385 179.659 20.3045L179.932 19.8625C179.967 19.8062 180.008 19.7628 180.056 19.7325C180.103 19.7022 180.164 19.687 180.238 19.687C180.316 19.687 180.398 19.7173 180.485 19.778C180.571 19.8387 180.675 19.9058 180.797 19.9795C180.922 20.0532 181.074 20.1203 181.252 20.181C181.429 20.2417 181.65 20.272 181.915 20.272C182.14 20.272 182.337 20.2438 182.506 20.1875C182.675 20.1268 182.816 20.0467 182.929 19.947C183.041 19.8473 183.124 19.7325 183.176 19.6025C183.232 19.4725 183.26 19.3338 183.26 19.1865C183.26 19.0045 183.21 18.855 183.111 18.738C183.015 18.6167 182.887 18.5148 182.727 18.4325C182.567 18.3458 182.383 18.2722 182.175 18.2115C181.971 18.1465 181.761 18.0793 181.544 18.01C181.332 17.9407 181.122 17.8627 180.914 17.776C180.71 17.685 180.528 17.5723 180.368 17.438C180.207 17.3037 180.077 17.139 179.978 16.944C179.882 16.7447 179.835 16.5042 179.835 16.2225C179.835 15.9712 179.887 15.7307 179.991 15.501C180.095 15.267 180.246 15.0633 180.446 14.89C180.645 14.7123 180.89 14.5715 181.18 14.4675C181.47 14.3635 181.802 14.3115 182.175 14.3115C182.608 14.3115 182.996 14.3808 183.338 14.5195C183.685 14.6538 183.984 14.8402 184.235 15.0785L183.975 15.501ZM189.599 15.501C189.547 15.5963 189.467 15.644 189.359 15.644C189.294 15.644 189.22 15.6202 189.138 15.5725C189.055 15.5248 188.953 15.4728 188.832 15.4165C188.715 15.3558 188.574 15.3017 188.41 15.254C188.245 15.202 188.05 15.176 187.825 15.176C187.63 15.176 187.454 15.202 187.298 15.254C187.142 15.3017 187.008 15.3688 186.895 15.4555C186.787 15.5422 186.702 15.644 186.642 15.761C186.585 15.8737 186.557 15.9972 186.557 16.1315C186.557 16.3005 186.605 16.4413 186.7 16.554C186.8 16.6667 186.93 16.7642 187.09 16.8465C187.25 16.9288 187.432 17.0025 187.636 17.0675C187.84 17.1282 188.048 17.1953 188.26 17.269C188.477 17.3383 188.687 17.4163 188.891 17.503C189.094 17.5897 189.276 17.698 189.437 17.828C189.597 17.958 189.725 18.1183 189.82 18.309C189.92 18.4953 189.97 18.7207 189.97 18.985C189.97 19.2883 189.915 19.57 189.807 19.83C189.699 20.0857 189.538 20.3088 189.326 20.4995C189.114 20.6858 188.854 20.8332 188.546 20.9415C188.238 21.0498 187.883 21.104 187.48 21.104C187.021 21.104 186.605 21.0303 186.232 20.883C185.859 20.7313 185.543 20.5385 185.283 20.3045L185.556 19.8625C185.591 19.8062 185.632 19.7628 185.68 19.7325C185.727 19.7022 185.788 19.687 185.862 19.687C185.94 19.687 186.022 19.7173 186.109 19.778C186.195 19.8387 186.299 19.9058 186.421 19.9795C186.546 20.0532 186.698 20.1203 186.876 20.181C187.053 20.2417 187.274 20.272 187.539 20.272C187.764 20.272 187.961 20.2438 188.13 20.1875C188.299 20.1268 188.44 20.0467 188.553 19.947C188.665 19.8473 188.748 19.7325 188.8 19.6025C188.856 19.4725 188.884 19.3338 188.884 19.1865C188.884 19.0045 188.834 18.855 188.735 18.738C188.639 18.6167 188.511 18.5148 188.351 18.4325C188.191 18.3458 188.007 18.2722 187.799 18.2115C187.595 18.1465 187.385 18.0793 187.168 18.01C186.956 17.9407 186.746 17.8627 186.538 17.776C186.334 17.685 186.152 17.5723 185.992 17.438C185.831 17.3037 185.701 17.139 185.602 16.944C185.506 16.7447 185.459 16.5042 185.459 16.2225C185.459 15.9712 185.511 15.7307 185.615 15.501C185.719 15.267 185.87 15.0633 186.07 14.89C186.269 14.7123 186.514 14.5715 186.804 14.4675C187.094 14.3635 187.426 14.3115 187.799 14.3115C188.232 14.3115 188.62 14.3808 188.962 14.5195C189.309 14.6538 189.608 14.8402 189.859 15.0785L189.599 15.501ZM196.803 14.4155V21H196.114C195.949 21 195.845 20.9198 195.802 20.7595L195.711 20.051C195.425 20.3673 195.104 20.623 194.749 20.818C194.393 21.0087 193.986 21.104 193.527 21.104C193.167 21.104 192.849 21.0455 192.571 20.9285C192.298 20.8072 192.069 20.6382 191.882 20.4215C191.696 20.2048 191.555 19.9427 191.46 19.635C191.369 19.3273 191.323 18.9872 191.323 18.6145V14.4155H192.48V18.6145C192.48 19.1128 192.593 19.4985 192.818 19.7715C193.048 20.0445 193.397 20.181 193.865 20.181C194.207 20.181 194.526 20.1008 194.82 19.9405C195.119 19.7758 195.394 19.5505 195.646 19.2645V14.4155H196.803ZM203.044 16.9895C203.044 16.7208 203.005 16.476 202.927 16.255C202.854 16.0297 202.743 15.8368 202.596 15.6765C202.453 15.5118 202.277 15.3862 202.069 15.2995C201.861 15.2085 201.625 15.163 201.361 15.163C200.806 15.163 200.366 15.3255 200.041 15.6505C199.721 15.9712 199.521 16.4175 199.443 16.9895H203.044ZM203.98 20.077C203.837 20.2503 203.666 20.402 203.467 20.532C203.267 20.6577 203.053 20.7617 202.823 20.844C202.598 20.9263 202.364 20.987 202.121 21.026C201.879 21.0693 201.638 21.091 201.4 21.091C200.945 21.091 200.524 21.0152 200.139 20.8635C199.757 20.7075 199.426 20.4822 199.144 20.1875C198.867 19.8885 198.65 19.5202 198.494 19.0825C198.338 18.6448 198.26 18.1422 198.26 17.5745C198.26 17.1152 198.33 16.6862 198.468 16.2875C198.611 15.8888 198.815 15.5443 199.079 15.254C199.344 14.9593 199.666 14.7297 200.048 14.565C200.429 14.396 200.858 14.3115 201.335 14.3115C201.729 14.3115 202.093 14.3787 202.427 14.513C202.765 14.643 203.055 14.8337 203.298 15.085C203.545 15.332 203.738 15.6397 203.876 16.008C204.015 16.372 204.084 16.788 204.084 17.256C204.084 17.438 204.065 17.5593 204.026 17.62C203.987 17.6807 203.913 17.711 203.805 17.711H199.404C199.417 18.127 199.474 18.4888 199.573 18.7965C199.677 19.1042 199.82 19.362 200.002 19.57C200.184 19.7737 200.401 19.9275 200.652 20.0315C200.904 20.1312 201.185 20.181 201.497 20.181C201.788 20.181 202.037 20.1485 202.245 20.0835C202.457 20.0142 202.639 19.9405 202.791 19.8625C202.942 19.7845 203.068 19.713 203.168 19.648C203.272 19.5787 203.361 19.544 203.434 19.544C203.53 19.544 203.603 19.5808 203.655 19.6545L203.98 20.077ZM210.028 11.4255V21H208.871V11.4255H210.028ZM215.472 18.036C214.939 18.0533 214.484 18.0967 214.107 18.166C213.735 18.231 213.429 18.3177 213.191 18.426C212.957 18.5343 212.786 18.6622 212.677 18.8095C212.573 18.9568 212.521 19.1215 212.521 19.3035C212.521 19.4768 212.549 19.6263 212.606 19.752C212.662 19.8777 212.738 19.9817 212.833 20.064C212.933 20.142 213.048 20.2005 213.178 20.2395C213.312 20.2742 213.455 20.2915 213.607 20.2915C213.81 20.2915 213.997 20.272 214.166 20.233C214.335 20.1897 214.493 20.129 214.64 20.051C214.792 19.973 214.935 19.8798 215.069 19.7715C215.208 19.6632 215.342 19.5397 215.472 19.401V18.036ZM211.735 15.345C212.099 14.994 212.491 14.7318 212.911 14.5585C213.332 14.3852 213.797 14.2985 214.309 14.2985C214.677 14.2985 215.004 14.3592 215.29 14.4805C215.576 14.6018 215.817 14.7708 216.012 14.9875C216.207 15.2042 216.354 15.4663 216.454 15.774C216.553 16.0817 216.603 16.4197 216.603 16.788V21H216.09C215.977 21 215.89 20.9827 215.83 20.948C215.769 20.909 215.721 20.8353 215.687 20.727L215.557 20.103C215.383 20.2633 215.214 20.4063 215.05 20.532C214.885 20.6533 214.712 20.7573 214.53 20.844C214.348 20.9263 214.153 20.9892 213.945 21.0325C213.741 21.0802 213.514 21.104 213.262 21.104C213.007 21.104 212.766 21.0693 212.541 21C212.315 20.9263 212.118 20.818 211.949 20.675C211.785 20.532 211.652 20.3522 211.553 20.1355C211.457 19.9145 211.41 19.6545 211.41 19.3555C211.41 19.0955 211.481 18.8463 211.624 18.608C211.767 18.3653 211.999 18.1508 212.32 17.9645C212.64 17.7782 213.059 17.6265 213.574 17.5095C214.09 17.3882 214.723 17.3188 215.472 17.3015V16.788C215.472 16.2767 215.362 15.891 215.141 15.631C214.92 15.3667 214.597 15.2345 214.172 15.2345C213.886 15.2345 213.646 15.2713 213.451 15.345C213.26 15.4143 213.093 15.4945 212.95 15.5855C212.812 15.6722 212.69 15.7523 212.586 15.826C212.487 15.8953 212.387 15.93 212.287 15.93C212.209 15.93 212.142 15.9105 212.086 15.8715C212.029 15.8282 211.982 15.7762 211.943 15.7155L211.735 15.345ZM219.529 19.414C219.742 19.7 219.973 19.9015 220.225 20.0185C220.48 20.1355 220.76 20.194 221.063 20.194C221.683 20.194 222.157 19.9752 222.487 19.5375C222.816 19.0998 222.981 18.4477 222.981 17.581C222.981 16.775 222.833 16.1835 222.539 15.8065C222.248 15.4252 221.832 15.2345 221.291 15.2345C220.914 15.2345 220.584 15.3212 220.303 15.4945C220.025 15.6678 219.768 15.9127 219.529 16.229V19.414ZM219.529 15.3645C219.807 15.0438 220.119 14.7882 220.465 14.5975C220.816 14.4068 221.219 14.3115 221.674 14.3115C222.06 14.3115 222.407 14.3852 222.714 14.5325C223.026 14.6798 223.291 14.8943 223.507 15.176C223.724 15.4533 223.889 15.7913 224.001 16.19C224.118 16.5887 224.177 17.0372 224.177 17.5355C224.177 18.0685 224.112 18.5538 223.982 18.9915C223.852 19.4292 223.663 19.804 223.416 20.116C223.174 20.4237 222.877 20.6642 222.526 20.8375C222.175 21.0065 221.78 21.091 221.343 21.091C220.909 21.091 220.543 21.0108 220.244 20.8505C219.95 20.6858 219.692 20.454 219.471 20.155L219.412 20.753C219.378 20.9177 219.278 21 219.113 21H218.366V11.4255H219.529V15.3645ZM230.047 16.9895C230.047 16.7208 230.008 16.476 229.93 16.255C229.856 16.0297 229.746 15.8368 229.599 15.6765C229.456 15.5118 229.28 15.3862 229.072 15.2995C228.864 15.2085 228.628 15.163 228.364 15.163C227.809 15.163 227.369 15.3255 227.044 15.6505C226.723 15.9712 226.524 16.4175 226.446 16.9895H230.047ZM230.983 20.077C230.84 20.2503 230.669 20.402 230.47 20.532C230.27 20.6577 230.056 20.7617 229.826 20.844C229.601 20.9263 229.367 20.987 229.124 21.026C228.881 21.0693 228.641 21.091 228.403 21.091C227.948 21.091 227.527 21.0152 227.142 20.8635C226.76 20.7075 226.429 20.4822 226.147 20.1875C225.87 19.8885 225.653 19.5202 225.497 19.0825C225.341 18.6448 225.263 18.1422 225.263 17.5745C225.263 17.1152 225.332 16.6862 225.471 16.2875C225.614 15.8888 225.818 15.5443 226.082 15.254C226.346 14.9593 226.669 14.7297 227.051 14.565C227.432 14.396 227.861 14.3115 228.338 14.3115C228.732 14.3115 229.096 14.3787 229.43 14.513C229.768 14.643 230.058 14.8337 230.301 15.085C230.548 15.332 230.74 15.6397 230.879 16.008C231.018 16.372 231.087 16.788 231.087 17.256C231.087 17.438 231.068 17.5593 231.029 17.62C230.99 17.6807 230.916 17.711 230.808 17.711H226.407C226.42 18.127 226.476 18.4888 226.576 18.7965C226.68 19.1042 226.823 19.362 227.005 19.57C227.187 19.7737 227.404 19.9275 227.655 20.0315C227.906 20.1312 228.188 20.181 228.5 20.181C228.79 20.181 229.04 20.1485 229.248 20.0835C229.46 20.0142 229.642 19.9405 229.794 19.8625C229.945 19.7845 230.071 19.713 230.171 19.648C230.275 19.5787 230.363 19.544 230.437 19.544C230.532 19.544 230.606 19.5808 230.658 19.6545L230.983 20.077ZM233.704 11.4255V21H232.547V11.4255H233.704ZM235.477 20.285C235.477 20.1723 235.496 20.0662 235.535 19.9665C235.578 19.8668 235.635 19.7802 235.704 19.7065C235.778 19.6328 235.864 19.5743 235.964 19.531C236.064 19.4877 236.17 19.466 236.283 19.466C236.395 19.466 236.501 19.4877 236.601 19.531C236.701 19.5743 236.787 19.6328 236.861 19.7065C236.935 19.7802 236.993 19.8668 237.037 19.9665C237.08 20.0662 237.102 20.1723 237.102 20.285C237.102 20.402 237.08 20.5103 237.037 20.61C236.993 20.7053 236.935 20.7898 236.861 20.8635C236.787 20.9372 236.701 20.9935 236.601 21.0325C236.501 21.0758 236.395 21.0975 236.283 21.0975C236.17 21.0975 236.064 21.0758 235.964 21.0325C235.864 20.9935 235.778 20.9372 235.704 20.8635C235.635 20.7898 235.578 20.7053 235.535 20.61C235.496 20.5103 235.477 20.402 235.477 20.285ZM235.477 15.41C235.477 15.2973 235.496 15.1912 235.535 15.0915C235.578 14.9918 235.635 14.9052 235.704 14.8315C235.778 14.7578 235.864 14.6993 235.964 14.656C236.064 14.6127 236.17 14.591 236.283 14.591C236.395 14.591 236.501 14.6127 236.601 14.656C236.701 14.6993 236.787 14.7578 236.861 14.8315C236.935 14.9052 236.993 14.9918 237.037 15.0915C237.08 15.1912 237.102 15.2973 237.102 15.41C237.102 15.527 237.08 15.6353 237.037 15.735C236.993 15.8303 236.935 15.9148 236.861 15.9885C236.787 16.0622 236.701 16.1207 236.601 16.164C236.501 16.203 236.395 16.2225 236.283 16.2225C236.17 16.2225 236.064 16.203 235.964 16.164C235.864 16.1207 235.778 16.0622 235.704 15.9885C235.635 15.9148 235.578 15.8303 235.535 15.735C235.496 15.6353 235.477 15.527 235.477 15.41ZM239.994 19.414C240.206 19.7 240.438 19.9015 240.69 20.0185C240.945 20.1355 241.225 20.194 241.528 20.194C242.148 20.194 242.622 19.9752 242.952 19.5375C243.281 19.0998 243.446 18.4477 243.446 17.581C243.446 16.775 243.298 16.1835 243.004 15.8065C242.713 15.4252 242.297 15.2345 241.756 15.2345C241.379 15.2345 241.049 15.3212 240.768 15.4945C240.49 15.6678 240.232 15.9127 239.994 16.229V19.414ZM239.994 15.3645C240.271 15.0438 240.583 14.7882 240.93 14.5975C241.281 14.4068 241.684 14.3115 242.139 14.3115C242.525 14.3115 242.871 14.3852 243.179 14.5325C243.491 14.6798 243.755 14.8943 243.972 15.176C244.189 15.4533 244.353 15.7913 244.466 16.19C244.583 16.5887 244.642 17.0372 244.642 17.5355C244.642 18.0685 244.577 18.5538 244.447 18.9915C244.317 19.4292 244.128 19.804 243.881 20.116C243.638 20.4237 243.342 20.6642 242.991 20.8375C242.64 21.0065 242.245 21.091 241.808 21.091C241.374 21.091 241.008 21.0108 240.709 20.8505C240.414 20.6858 240.157 20.454 239.936 20.155L239.877 20.753C239.842 20.9177 239.743 21 239.578 21H238.831V11.4255H239.994V15.3645ZM251.519 14.4155V21H250.83C250.666 21 250.562 20.9198 250.518 20.7595L250.427 20.051C250.141 20.3673 249.821 20.623 249.465 20.818C249.11 21.0087 248.703 21.104 248.243 21.104C247.884 21.104 247.565 21.0455 247.288 20.9285C247.015 20.8072 246.785 20.6382 246.599 20.4215C246.413 20.2048 246.272 19.9427 246.176 19.635C246.085 19.3273 246.04 18.9872 246.04 18.6145V14.4155H247.197V18.6145C247.197 19.1128 247.31 19.4985 247.535 19.7715C247.765 20.0445 248.113 20.181 248.581 20.181C248.924 20.181 249.242 20.1008 249.537 19.9405C249.836 19.7758 250.111 19.5505 250.362 19.2645V14.4155H251.519ZM255.649 17.7825C255.883 17.7825 256.088 17.75 256.266 17.685C256.444 17.62 256.593 17.529 256.715 17.412C256.836 17.295 256.927 17.1563 256.988 16.996C257.048 16.8313 257.079 16.6515 257.079 16.4565C257.079 16.0535 256.955 15.7328 256.708 15.4945C256.465 15.2562 256.112 15.137 255.649 15.137C255.181 15.137 254.823 15.2562 254.576 15.4945C254.333 15.7328 254.212 16.0535 254.212 16.4565C254.212 16.6515 254.242 16.8313 254.303 16.996C254.368 17.1563 254.461 17.295 254.583 17.412C254.704 17.529 254.853 17.62 255.031 17.685C255.209 17.75 255.415 17.7825 255.649 17.7825ZM257.735 21.3575C257.735 21.1972 257.69 21.0672 257.599 20.9675C257.508 20.8678 257.384 20.7898 257.228 20.7335C257.076 20.6772 256.899 20.6382 256.695 20.6165C256.491 20.5905 256.275 20.571 256.045 20.558C255.82 20.545 255.59 20.532 255.356 20.519C255.122 20.506 254.897 20.4843 254.68 20.454C254.437 20.5667 254.238 20.7097 254.082 20.883C253.93 21.052 253.855 21.2513 253.855 21.481C253.855 21.6283 253.891 21.7648 253.965 21.8905C254.043 22.0205 254.16 22.131 254.316 22.222C254.472 22.3173 254.667 22.391 254.901 22.443C255.139 22.4993 255.419 22.5275 255.74 22.5275C256.052 22.5275 256.331 22.4993 256.578 22.443C256.825 22.3867 257.033 22.3065 257.202 22.2025C257.375 22.0985 257.508 21.975 257.599 21.832C257.69 21.689 257.735 21.5308 257.735 21.3575ZM258.912 14.6755V15.1045C258.912 15.2475 258.821 15.3385 258.639 15.3775L257.891 15.475C258.038 15.761 258.112 16.0773 258.112 16.424C258.112 16.7447 258.049 17.0372 257.924 17.3015C257.802 17.5615 257.633 17.7847 257.417 17.971C257.2 18.1573 256.94 18.3003 256.637 18.4C256.333 18.4997 256.004 18.5495 255.649 18.5495C255.341 18.5495 255.051 18.5127 254.778 18.439C254.639 18.5257 254.533 18.6188 254.459 18.7185C254.385 18.8138 254.348 18.9113 254.348 19.011C254.348 19.167 254.411 19.2862 254.537 19.3685C254.667 19.4465 254.836 19.5028 255.044 19.5375C255.252 19.5722 255.488 19.5938 255.753 19.6025C256.021 19.6112 256.294 19.6263 256.572 19.648C256.853 19.6653 257.126 19.6978 257.391 19.7455C257.659 19.7932 257.898 19.8712 258.106 19.9795C258.314 20.0878 258.48 20.2373 258.606 20.428C258.736 20.6187 258.801 20.8657 258.801 21.169C258.801 21.4507 258.73 21.7237 258.587 21.988C258.448 22.2523 258.246 22.4863 257.982 22.69C257.718 22.898 257.393 23.0627 257.007 23.184C256.626 23.3097 256.195 23.3725 255.714 23.3725C255.233 23.3725 254.812 23.3248 254.453 23.2295C254.093 23.1342 253.794 23.0063 253.556 22.846C253.317 22.6857 253.137 22.4993 253.016 22.287C252.899 22.079 252.841 21.8602 252.841 21.6305C252.841 21.3055 252.942 21.0303 253.146 20.805C253.35 20.5797 253.629 20.3998 253.985 20.2655C253.79 20.1788 253.634 20.064 253.517 19.921C253.404 19.7737 253.348 19.5765 253.348 19.3295C253.348 19.2342 253.365 19.1367 253.4 19.037C253.434 18.933 253.486 18.8312 253.556 18.7315C253.629 18.6275 253.718 18.53 253.822 18.439C253.926 18.348 254.047 18.2678 254.186 18.1985C253.861 18.0165 253.608 17.776 253.426 17.477C253.244 17.1737 253.153 16.8227 253.153 16.424C253.153 16.1033 253.213 15.813 253.335 15.553C253.46 15.2887 253.634 15.0655 253.855 14.8835C254.076 14.6972 254.338 14.5542 254.641 14.4545C254.949 14.3548 255.285 14.305 255.649 14.305C255.935 14.305 256.201 14.3375 256.448 14.4025C256.695 14.4632 256.92 14.5542 257.124 14.6755H258.912Z"
    fill="#EEEEEE"/>
</svg>
