<svg width="500"
  height="32"
  viewBox="0 0 500 32"
  fill="none"
  xmlns="http://www.w3.org/2000/svg">
  <path d="M0 6C0 2.68629 2.68629 0 6 0H88V32H6C2.68629 32 0 29.3137 0 26V6Z"
    fill="#373E47"/>
  <path d="M19.639 12.075V15.582H23.762V16.688H19.639V21H18.281V10.969H24.462V12.075H19.639ZM27.1917 13.909V21H25.9457V13.909H27.1917ZM27.4577 11.683C27.4577 11.8043 27.432 11.9187 27.3807 12.026C27.334 12.1287 27.2687 12.222 27.1847 12.306C27.1053 12.3853 27.0097 12.4483 26.8977 12.495C26.7903 12.5417 26.676 12.565 26.5547 12.565C26.4333 12.565 26.319 12.5417 26.2117 12.495C26.109 12.4483 26.018 12.3853 25.9387 12.306C25.8593 12.222 25.7963 12.1287 25.7497 12.026C25.703 11.9187 25.6797 11.8043 25.6797 11.683C25.6797 11.5617 25.703 11.4473 25.7497 11.34C25.7963 11.228 25.8593 11.1323 25.9387 11.053C26.018 10.969 26.109 10.9037 26.2117 10.857C26.319 10.8103 26.4333 10.787 26.5547 10.787C26.676 10.787 26.7903 10.8103 26.8977 10.857C27.0097 10.9037 27.1053 10.969 27.1847 11.053C27.2687 11.1323 27.334 11.228 27.3807 11.34C27.432 11.4473 27.4577 11.5617 27.4577 11.683ZM30.527 10.689V21H29.281V10.689H30.527ZM34.7245 21.112C34.1645 21.112 33.7329 20.9557 33.4295 20.643C33.1309 20.3303 32.9815 19.88 32.9815 19.292V14.952H32.1275C32.0529 14.952 31.9899 14.931 31.9385 14.889C31.8872 14.8423 31.8615 14.7723 31.8615 14.679V14.182L33.0235 14.035L33.3105 11.844C33.3245 11.774 33.3549 11.718 33.4015 11.676C33.4529 11.6293 33.5182 11.606 33.5975 11.606H34.2275V14.049H36.2785V14.952H34.2275V19.208C34.2275 19.5067 34.2999 19.7283 34.4445 19.873C34.5892 20.0177 34.7759 20.09 35.0045 20.09C35.1352 20.09 35.2472 20.0737 35.3405 20.041C35.4385 20.0037 35.5225 19.964 35.5925 19.922C35.6625 19.88 35.7209 19.8427 35.7675 19.81C35.8189 19.7727 35.8632 19.754 35.9005 19.754C35.9659 19.754 36.0242 19.7937 36.0755 19.873L36.4395 20.468C36.2249 20.6687 35.9659 20.8273 35.6625 20.944C35.3592 21.056 35.0465 21.112 34.7245 21.112ZM42.2701 16.681C42.2701 16.3917 42.2281 16.128 42.1441 15.89C42.0648 15.6473 41.9458 15.4397 41.7871 15.267C41.6331 15.0897 41.4441 14.9543 41.2201 14.861C40.9961 14.763 40.7418 14.714 40.4571 14.714C39.8598 14.714 39.3861 14.889 39.0361 15.239C38.6908 15.5843 38.4761 16.065 38.3921 16.681H42.2701ZM43.2781 20.006C43.1241 20.1927 42.9398 20.356 42.7251 20.496C42.5104 20.6313 42.2794 20.7433 42.0321 20.832C41.7894 20.9207 41.5374 20.986 41.2761 21.028C41.0148 21.0747 40.7558 21.098 40.4991 21.098C40.0091 21.098 39.5564 21.0163 39.1411 20.853C38.7304 20.685 38.3734 20.4423 38.0701 20.125C37.7714 19.803 37.5381 19.4063 37.3701 18.935C37.2021 18.4637 37.1181 17.9223 37.1181 17.311C37.1181 16.8163 37.1928 16.3543 37.3421 15.925C37.4961 15.4957 37.7154 15.1247 38.0001 14.812C38.2848 14.4947 38.6324 14.2473 39.0431 14.07C39.4538 13.888 39.9158 13.797 40.4291 13.797C40.8538 13.797 41.2458 13.8693 41.6051 14.014C41.9691 14.154 42.2818 14.3593 42.5431 14.63C42.8091 14.896 43.0168 15.2273 43.1661 15.624C43.3154 16.016 43.3901 16.464 43.3901 16.968C43.3901 17.164 43.3691 17.2947 43.3271 17.36C43.2851 17.4253 43.2058 17.458 43.0891 17.458H38.3501C38.3641 17.906 38.4248 18.2957 38.5321 18.627C38.6441 18.9583 38.7981 19.236 38.9941 19.46C39.1901 19.6793 39.4234 19.845 39.6941 19.957C39.9648 20.0643 40.2681 20.118 40.6041 20.118C40.9168 20.118 41.1851 20.083 41.4091 20.013C41.6378 19.9383 41.8338 19.859 41.9971 19.775C42.1604 19.691 42.2958 19.614 42.4031 19.544C42.5151 19.4693 42.6108 19.432 42.6901 19.432C42.7928 19.432 42.8721 19.4717 42.9281 19.551L43.2781 20.006ZM46.1036 15.33C46.3276 14.8447 46.6029 14.4667 46.9296 14.196C47.2563 13.9207 47.6553 13.783 48.1266 13.783C48.2759 13.783 48.4183 13.7993 48.5536 13.832C48.6936 13.8647 48.8173 13.916 48.9246 13.986L48.8336 14.917C48.8056 15.0337 48.7356 15.092 48.6236 15.092C48.5583 15.092 48.4626 15.078 48.3366 15.05C48.2106 15.022 48.0683 15.008 47.9096 15.008C47.6856 15.008 47.4849 15.0407 47.3076 15.106C47.1349 15.1713 46.9786 15.2693 46.8386 15.4C46.7033 15.526 46.5796 15.6847 46.4676 15.876C46.3603 16.0627 46.2623 16.2773 46.1736 16.52V21H44.9206V13.909H45.6346C45.7699 13.909 45.8633 13.9347 45.9146 13.986C45.9659 14.0373 46.0009 14.126 46.0196 14.252L46.1036 15.33ZM54.1092 15.078C54.0532 15.1807 53.9669 15.232 53.8502 15.232C53.7802 15.232 53.7009 15.2063 53.6122 15.155C53.5235 15.1037 53.4139 15.0477 53.2832 14.987C53.1572 14.9217 53.0055 14.8633 52.8282 14.812C52.6509 14.756 52.4409 14.728 52.1982 14.728C51.9882 14.728 51.7992 14.756 51.6312 14.812C51.4632 14.8633 51.3185 14.9357 51.1972 15.029C51.0805 15.1223 50.9895 15.232 50.9242 15.358C50.8635 15.4793 50.8332 15.6123 50.8332 15.757C50.8332 15.939 50.8845 16.0907 50.9872 16.212C51.0945 16.3333 51.2345 16.4383 51.4072 16.527C51.5799 16.6157 51.7759 16.695 51.9952 16.765C52.2145 16.8303 52.4385 16.9027 52.6672 16.982C52.9005 17.0567 53.1269 17.1407 53.3462 17.234C53.5655 17.3273 53.7615 17.444 53.9342 17.584C54.1069 17.724 54.2445 17.8967 54.3472 18.102C54.4545 18.3027 54.5082 18.5453 54.5082 18.83C54.5082 19.1567 54.4499 19.46 54.3332 19.74C54.2165 20.0153 54.0439 20.2557 53.8152 20.461C53.5865 20.6617 53.3065 20.8203 52.9752 20.937C52.6439 21.0537 52.2612 21.112 51.8272 21.112C51.3325 21.112 50.8845 21.0327 50.4832 20.874C50.0819 20.7107 49.7412 20.503 49.4612 20.251L49.7552 19.775C49.7925 19.7143 49.8369 19.6677 49.8882 19.635C49.9395 19.6023 50.0049 19.586 50.0842 19.586C50.1682 19.586 50.2569 19.6187 50.3502 19.684C50.4435 19.7493 50.5555 19.8217 50.6862 19.901C50.8215 19.9803 50.9849 20.0527 51.1762 20.118C51.3675 20.1833 51.6055 20.216 51.8902 20.216C52.1329 20.216 52.3452 20.1857 52.5272 20.125C52.7092 20.0597 52.8609 19.9733 52.9822 19.866C53.1035 19.7587 53.1922 19.635 53.2482 19.495C53.3089 19.355 53.3392 19.2057 53.3392 19.047C53.3392 18.851 53.2855 18.69 53.1782 18.564C53.0755 18.4333 52.9379 18.3237 52.7652 18.235C52.5925 18.1417 52.3942 18.0623 52.1702 17.997C51.9509 17.927 51.7245 17.8547 51.4912 17.78C51.2625 17.7053 51.0362 17.6213 50.8122 17.528C50.5929 17.43 50.3969 17.3087 50.2242 17.164C50.0515 17.0193 49.9115 16.842 49.8042 16.632C49.7015 16.4173 49.6502 16.1583 49.6502 15.855C49.6502 15.5843 49.7062 15.3253 49.8182 15.078C49.9302 14.826 50.0935 14.6067 50.3082 14.42C50.5229 14.2287 50.7865 14.077 51.0992 13.965C51.4119 13.853 51.7689 13.797 52.1702 13.797C52.6369 13.797 53.0545 13.8717 53.4232 14.021C53.7965 14.1657 54.1185 14.3663 54.3892 14.623L54.1092 15.078Z"
    fill="#EEEEEE"/>
  <path d="M71 15L67 20L63 15H71Z"
    fill="#EEEEEE"/>
  <path d="M87 0H494C497.314 0 500 2.68629 500 6V26C500 29.3137 497.314 32 494 32H87V0Z"
    fill="#2B2B2B"/>
  <rect x="119"
    y="7"
    width="51"
    height="18"
    rx="4"
    fill="#444D56"/>
  <path fill-rule="evenodd"
    clip-rule="evenodd"
    d="M129.063 12.6406C129.063 12.8022 128.998 12.9572 128.884 13.0715C128.77 13.1858 128.615 13.25 128.453 13.25C128.292 13.25 128.137 13.1858 128.022 13.0715C127.908 12.9572 127.844 12.8022 127.844 12.6406C127.844 12.479 127.908 12.324 128.022 12.2097C128.137 12.0954 128.292 12.0312 128.453 12.0312C128.615 12.0312 128.77 12.0954 128.884 12.2097C128.998 12.324 129.063 12.479 129.063 12.6406V12.6406ZM129.063 14.3647C129.469 14.221 129.812 13.9381 130.03 13.5662C130.248 13.1942 130.328 12.7571 130.255 12.332C130.182 11.907 129.961 11.5214 129.631 11.2435C129.302 10.9655 128.884 10.813 128.453 10.813C128.022 10.813 127.605 10.9655 127.275 11.2435C126.945 11.5214 126.724 11.907 126.651 12.332C126.578 12.7571 126.658 13.1942 126.876 13.5662C127.094 13.9381 127.437 14.221 127.844 14.3647V15.0781C127.844 15.563 128.036 16.028 128.379 16.3708C128.722 16.7136 129.187 16.9062 129.672 16.9062H130.891V18.6352C130.484 18.779 130.141 19.062 129.923 19.4341C129.704 19.8062 129.624 20.2436 129.697 20.6688C129.77 21.0941 129.991 21.4799 130.321 21.758C130.651 22.0361 131.069 22.1886 131.5 22.1886C131.931 22.1886 132.349 22.0361 132.679 21.758C133.009 21.4799 133.23 21.0941 133.303 20.6688C133.376 20.2436 133.296 19.8062 133.077 19.4341C132.859 19.062 132.516 18.779 132.109 18.6352V16.9062H133.328C133.813 16.9062 134.278 16.7136 134.621 16.3708C134.964 16.028 135.156 15.563 135.156 15.0781V14.3647C135.563 14.221 135.906 13.9381 136.124 13.5662C136.342 13.1942 136.422 12.7571 136.349 12.332C136.276 11.907 136.055 11.5214 135.725 11.2435C135.395 10.9655 134.978 10.813 134.547 10.813C134.116 10.813 133.698 10.9655 133.369 11.2435C133.039 11.5214 132.818 11.907 132.745 12.332C132.672 12.7571 132.752 13.1942 132.97 13.5662C133.188 13.9381 133.531 14.221 133.938 14.3647V15.0781C133.938 15.2397 133.873 15.3947 133.759 15.509C133.645 15.6233 133.49 15.6875 133.328 15.6875H129.672C129.51 15.6875 129.355 15.6233 129.241 15.509C129.127 15.3947 129.063 15.2397 129.063 15.0781V14.3647ZM132.109 20.3594C132.109 20.521 132.045 20.676 131.931 20.7903C131.817 20.9045 131.662 20.9687 131.5 20.9687C131.338 20.9687 131.183 20.9045 131.069 20.7903C130.955 20.676 130.891 20.521 130.891 20.3594C130.891 20.1978 130.955 20.0428 131.069 19.9285C131.183 19.8142 131.338 19.75 131.5 19.75C131.662 19.75 131.817 19.8142 131.931 19.9285C132.045 20.0428 132.109 20.1978 132.109 20.3594ZM134.547 13.25C134.708 13.25 134.863 13.1858 134.978 13.0715C135.092 12.9572 135.156 12.8022 135.156 12.6406C135.156 12.479 135.092 12.324 134.978 12.2097C134.863 12.0954 134.708 12.0312 134.547 12.0312C134.385 12.0312 134.23 12.0954 134.116 12.2097C134.002 12.324 133.938 12.479 133.938 12.6406C133.938 12.8022 134.002 12.9572 134.116 13.0715C134.23 13.1858 134.385 13.25 134.547 13.25Z"
    fill="#FAFBFC"/>
  <path d="M144.459 18.999C144.819 18.999 145.129 18.9578 145.389 18.8755C145.649 18.7932 145.861 18.6783 146.026 18.531C146.195 18.3793 146.318 18.2017 146.396 17.998C146.474 17.79 146.513 17.5625 146.513 17.3155C146.513 16.8345 146.342 16.4553 146 16.178C145.657 15.8963 145.144 15.7555 144.459 15.7555H142.444V18.999H144.459ZM142.444 11.68V14.8585H144.108C144.463 14.8585 144.771 14.8195 145.031 14.7415C145.295 14.6635 145.512 14.5552 145.681 14.4165C145.854 14.2778 145.982 14.111 146.065 13.916C146.147 13.7167 146.188 13.5 146.188 13.266C146.188 12.7157 146.023 12.3148 145.694 12.0635C145.365 11.8078 144.853 11.68 144.16 11.68H142.444ZM144.16 10.6855C144.732 10.6855 145.224 10.7418 145.636 10.8545C146.052 10.9672 146.392 11.1275 146.656 11.3355C146.925 11.5435 147.122 11.7992 147.248 12.1025C147.373 12.4015 147.436 12.7395 147.436 13.1165C147.436 13.3462 147.399 13.5672 147.326 13.7795C147.256 13.9875 147.15 14.1825 147.007 14.3645C146.864 14.5465 146.682 14.7112 146.461 14.8585C146.244 15.0015 145.989 15.1185 145.694 15.2095C146.379 15.3395 146.892 15.5843 147.235 15.944C147.581 16.2993 147.755 16.7673 147.755 17.348C147.755 17.7423 147.681 18.102 147.534 18.427C147.391 18.752 147.178 19.0315 146.897 19.2655C146.619 19.4995 146.277 19.6815 145.87 19.8115C145.462 19.9372 144.999 20 144.479 20H141.19V10.6855H144.16ZM154.596 13.4155V20H153.907C153.742 20 153.638 19.9198 153.595 19.7595L153.504 19.051C153.218 19.3673 152.897 19.623 152.542 19.818C152.186 20.0087 151.779 20.104 151.32 20.104C150.96 20.104 150.641 20.0455 150.364 19.9285C150.091 19.8072 149.861 19.6382 149.675 19.4215C149.489 19.2048 149.348 18.9427 149.253 18.635C149.162 18.3273 149.116 17.9872 149.116 17.6145V13.4155H150.273V17.6145C150.273 18.1128 150.386 18.4985 150.611 18.7715C150.841 19.0445 151.19 19.181 151.658 19.181C152 19.181 152.318 19.1008 152.613 18.9405C152.912 18.7758 153.187 18.5505 153.439 18.2645V13.4155H154.596ZM158.725 16.7825C158.959 16.7825 159.165 16.75 159.342 16.685C159.52 16.62 159.669 16.529 159.791 16.412C159.912 16.295 160.003 16.1563 160.064 15.996C160.124 15.8313 160.155 15.6515 160.155 15.4565C160.155 15.0535 160.031 14.7328 159.784 14.4945C159.542 14.2562 159.188 14.137 158.725 14.137C158.257 14.137 157.899 14.2562 157.652 14.4945C157.41 14.7328 157.288 15.0535 157.288 15.4565C157.288 15.6515 157.319 15.8313 157.379 15.996C157.444 16.1563 157.537 16.295 157.659 16.412C157.78 16.529 157.93 16.62 158.107 16.685C158.285 16.75 158.491 16.7825 158.725 16.7825ZM160.811 20.3575C160.811 20.1972 160.766 20.0672 160.675 19.9675C160.584 19.8678 160.46 19.7898 160.304 19.7335C160.153 19.6772 159.975 19.6382 159.771 19.6165C159.568 19.5905 159.351 19.571 159.121 19.558C158.896 19.545 158.666 19.532 158.432 19.519C158.198 19.506 157.973 19.4843 157.756 19.454C157.514 19.5667 157.314 19.7097 157.158 19.883C157.007 20.052 156.931 20.2513 156.931 20.481C156.931 20.6283 156.968 20.7648 157.041 20.8905C157.119 21.0205 157.236 21.131 157.392 21.222C157.548 21.3173 157.743 21.391 157.977 21.443C158.216 21.4993 158.495 21.5275 158.816 21.5275C159.128 21.5275 159.407 21.4993 159.654 21.443C159.901 21.3867 160.109 21.3065 160.278 21.2025C160.452 21.0985 160.584 20.975 160.675 20.832C160.766 20.689 160.811 20.5308 160.811 20.3575ZM161.988 13.6755V14.1045C161.988 14.2475 161.897 14.3385 161.715 14.3775L160.967 14.475C161.115 14.761 161.188 15.0773 161.188 15.424C161.188 15.7447 161.125 16.0372 161 16.3015C160.878 16.5615 160.709 16.7847 160.493 16.971C160.276 17.1573 160.016 17.3003 159.713 17.4C159.409 17.4997 159.08 17.5495 158.725 17.5495C158.417 17.5495 158.127 17.5127 157.854 17.439C157.715 17.5257 157.609 17.6188 157.535 17.7185C157.462 17.8138 157.425 17.9113 157.425 18.011C157.425 18.167 157.488 18.2862 157.613 18.3685C157.743 18.4465 157.912 18.5028 158.12 18.5375C158.328 18.5722 158.564 18.5938 158.829 18.6025C159.097 18.6112 159.37 18.6263 159.648 18.648C159.929 18.6653 160.202 18.6978 160.467 18.7455C160.735 18.7932 160.974 18.8712 161.182 18.9795C161.39 19.0878 161.557 19.2373 161.682 19.428C161.812 19.6187 161.877 19.8657 161.877 20.169C161.877 20.4507 161.806 20.7237 161.663 20.988C161.524 21.2523 161.323 21.4863 161.058 21.69C160.794 21.898 160.469 22.0627 160.083 22.184C159.702 22.3097 159.271 22.3725 158.79 22.3725C158.309 22.3725 157.888 22.3248 157.529 22.2295C157.169 22.1342 156.87 22.0063 156.632 21.846C156.393 21.6857 156.214 21.4993 156.092 21.287C155.975 21.079 155.917 20.8602 155.917 20.6305C155.917 20.3055 156.019 20.0303 156.222 19.805C156.426 19.5797 156.705 19.3998 157.061 19.2655C156.866 19.1788 156.71 19.064 156.593 18.921C156.48 18.7737 156.424 18.5765 156.424 18.3295C156.424 18.2342 156.441 18.1367 156.476 18.037C156.51 17.933 156.562 17.8312 156.632 17.7315C156.705 17.6275 156.794 17.53 156.898 17.439C157.002 17.348 157.124 17.2678 157.262 17.1985C156.937 17.0165 156.684 16.776 156.502 16.477C156.32 16.1737 156.229 15.8227 156.229 15.424C156.229 15.1033 156.289 14.813 156.411 14.553C156.536 14.2887 156.71 14.0655 156.931 13.8835C157.152 13.6972 157.414 13.5542 157.717 13.4545C158.025 13.3548 158.361 13.305 158.725 13.305C159.011 13.305 159.277 13.3375 159.524 13.4025C159.771 13.4632 159.997 13.5542 160.2 13.6755H161.988Z"
    fill="#FAFBFC"/>
  <path fill-rule="evenodd"
    clip-rule="evenodd"
    d="M484.655 22.916L485 22.25L485.345 22.916C485.238 22.9711 485.12 22.9998 485 22.9998C484.88 22.9998 484.762 22.9711 484.655 22.916V22.916ZM484.655 22.916L485 22.25L485.345 22.916L485.347 22.915L485.353 22.912L485.371 22.902C485.476 22.8477 485.579 22.791 485.681 22.732C486.899 22.0382 488.049 21.2298 489.114 20.318C490.956 18.731 493 16.35 493 13.5C493 10.836 490.914 9 488.75 9C487.203 9 485.847 9.802 485 11.02C484.153 9.802 482.797 9 481.25 9C479.086 9 477 10.836 477 13.5C477 16.35 479.045 18.731 480.885 20.318C482.041 21.306 483.295 22.1719 484.629 22.902L484.647 22.912L484.653 22.915H484.655V22.916Z"
    fill="#FAFBFC"/>
  <path fill-rule="evenodd"
    clip-rule="evenodd"
    d="M106.5 16C106.5 17.1932 106.026 18.3375 105.182 19.1813C104.339 20.025 103.194 20.499 102.001 20.499C100.808 20.499 99.6634 20.025 98.8197 19.1813C97.976 18.3375 97.502 17.1932 97.502 16C97.502 14.8068 97.976 13.6624 98.8197 12.8187C99.6634 11.975 100.808 11.501 102.001 11.501C103.194 11.501 104.339 11.975 105.182 12.8187C106.026 13.6624 106.5 14.8068 106.5 16V16ZM105.68 20.74C104.474 21.676 102.957 22.1173 101.438 21.9741C99.9182 21.831 98.5103 21.1141 97.5007 19.9694C96.4911 18.8247 95.9557 17.3383 96.0035 15.8127C96.0513 14.2872 96.6787 12.8372 97.7579 11.7579C98.8372 10.6787 100.287 10.0513 101.813 10.0035C103.338 9.95575 104.825 10.4912 105.969 11.5007C107.114 12.5103 107.831 13.9182 107.974 15.4378C108.117 16.9574 107.676 18.4744 106.74 19.68L109.78 22.72C109.854 22.7887 109.913 22.8715 109.954 22.9635C109.995 23.0555 110.017 23.1548 110.019 23.2555C110.02 23.3562 110.002 23.4562 109.964 23.5496C109.926 23.643 109.87 23.7278 109.799 23.799C109.728 23.8703 109.643 23.9264 109.55 23.9641C109.456 24.0018 109.356 24.0204 109.255 24.0186C109.155 24.0168 109.055 23.9948 108.963 23.9538C108.871 23.9128 108.789 23.8537 108.72 23.78L105.68 20.74V20.74Z"
    fill="#EEEEEE"/>
  <rect x="0.5"
    y="0.5"
    width="499"
    height="31"
    rx="5.5"
    stroke="#586069"/>
  <line x1="87.5"
    y1="2.18557e-08"
    x2="87.5"
    y2="32"
    stroke="#586069"/>
</svg>
